<?xml version="1.0" encoding="utf-8" standalone="no"?>
<!DOCTYPE svg PUBLIC "-//W3C//DTD SVG 1.1//EN"
  "http://www.w3.org/Graphics/SVG/1.1/DTD/svg11.dtd">
<svg xmlns:xlink="http://www.w3.org/1999/xlink" width="669.6pt" height="523.903003pt" viewBox="0 0 669.6 523.903003" xmlns="http://www.w3.org/2000/svg" version="1.1">
 <metadata>
  <rdf:RDF xmlns:dc="http://purl.org/dc/elements/1.1/" xmlns:cc="http://creativecommons.org/ns#" xmlns:rdf="http://www.w3.org/1999/02/22-rdf-syntax-ns#">
   <cc:Work>
    <dc:type rdf:resource="http://purl.org/dc/dcmitype/StillImage"/>
    <dc:date>2025-04-23T12:41:01.684702</dc:date>
    <dc:format>image/svg+xml</dc:format>
    <dc:creator>
     <cc:Agent>
      <dc:title>Matplotlib v3.10.1, https://matplotlib.org/</dc:title>
     </cc:Agent>
    </dc:creator>
   </cc:Work>
  </rdf:RDF>
 </metadata>
 <defs>
  <style type="text/css">*{stroke-linejoin: round; stroke-linecap: butt}</style>
 </defs>
 <g id="figure_1">
  <g id="patch_1">
   <path d="M 0 523.903003 
L 669.6 523.903003 
L 669.6 0 
L 0 0 
z
" style="fill: #f7f7f7"/>
  </g>
  <g id="axes_1">
   <g id="PatchCollection_1">
    <path d="M 2098.684014 12.424773 
L 2111.815385 6.676808 
L 2111.815385 16.100377 
L 2100.518975 16.804327 
L 2098.684014 12.424773 
" clip-path="url(#pbda7d72352)" style="fill: #1a1a1a"/>
    <path d="M 763.35595 352.954418 
L 758.661024 361.130614 
L 748.673682 363.402699 
L 738.434983 377.6348 
L 747.79836 390.719139 
L 746.784483 400.005733 
L 758.032218 416.242591 
L 758.032047 416.242745 
L 751.881305 421.799558 
L 750.113381 425.306993 
L 745.556493 424.365122 
L 738.476813 415.990881 
L 735.580847 415.528495 
L 729.105807 412.333171 
L 725.952291 406.675837 
L 716.344497 403.791447 
L 710.097511 405.956444 
L 708.292475 403.393869 
L 694.266004 396.783454 
L 679.099976 394.552041 
L 670.392857 392.19511 
L 669.136519 393.823434 
L 656.001969 382.173454 
L 644.24915 376.972889 
L 635.352123 368.873349 
L 642.848656 366.669923 
L 651.396666 355.139094 
L 645.635737 349.683609 
L 660.81969 344.056064 
L 660.547008 341.042105 
L 651.299709 343.264145 
L 651.624973 337.139848 
L 656.93498 333.290271 
L 666.903857 332.279454 
L 668.524725 327.681889 
L 666.248394 320.079643 
L 670.432251 312.860674 
L 670.311218 308.812557 
L 655.126217 304.326129 
L 649.10644 304.475033 
L 642.748623 298.01873 
L 634.844338 300.202061 
L 621.760852 295.35449 
L 621.985362 292.642015 
L 618.320827 286.663561 
L 610.106717 285.995987 
L 609.253365 281.716246 
L 611.826197 278.924832 
L 605.243197 271.118776 
L 594.561127 272.450718 
L 591.432525 271.758208 
L 588.83017 274.893974 
L 584.983085 274.336602 
L 584.982854 274.336569 
L 582.449174 265.507806 
L 580.03019 260.931326 
L 582.012611 259.643157 
L 590.324711 260.121617 
L 594.333283 257.106491 
L 591.365982 253.430559 
L 584.419389 251.00428 
L 585.039041 248.514236 
L 580.84681 245.999257 
L 574.388379 236.972759 
L 576.596021 233.253367 
L 575.587224 226.78139 
L 565.516288 223.493392 
L 560.110839 225.139172 
L 558.647418 221.71652 
L 547.801917 218.258957 
L 544.490721 210.121964 
L 543.612348 203.43625 
L 538.648747 200.261533 
L 543.062967 195.885966 
L 540.008191 183.027306 
L 547.338243 175.082523 
L 545.787045 172.676086 
L 545.787116 172.67604 
L 557.495568 165.056331 
L 546.702666 158.501075 
L 546.702646 158.501063 
L 568.759344 140.901951 
L 578.328277 132.937729 
L 582.202697 125.906472 
L 566.954157 116.460692 
L 571.165552 107.476586 
L 561.891539 97.216109 
L 568.826745 85.396465 
L 556.845424 69.702727 
L 566.352072 59.30724 
L 550.575444 50.120795 
L 552.079324 40.467689 
L 560.399057 39.19732 
L 577.927044 33.666268 
L 577.927433 33.666145 
L 588.554912 28.870502 
L 605.477765 37.20511 
L 633.688425 40.486397 
L 672.611552 56.07968 
L 680.518292 62.63219 
L 681.199017 71.808076 
L 669.763073 79.051724 
L 652.941897 82.728007 
L 606.953357 72.248844 
L 599.389247 74.000886 
L 616.184154 84.098151 
L 616.841436 90.494415 
L 617.514494 104.582483 
L 630.776489 108.786391 
L 638.826523 112.365751 
L 640.157894 105.680749 
L 633.95234 99.755819 
L 640.508867 94.533885 
L 665.41191 103.115278 
L 674.08735 99.755819 
L 667.154415 89.65883 
L 691.162047 76.155781 
L 700.669852 76.950597 
L 710.288502 81.769126 
L 716.289251 72.293927 
L 707.699107 64.075405 
L 712.742328 55.829999 
L 705.169358 47.278248 
L 733.984615 51.700954 
L 739.870296 59.422044 
L 726.826797 61.124039 
L 726.897363 68.796047 
L 735.006013 73.516413 
L 750.921993 70.526306 
L 753.441749 61.732594 
L 774.960633 55.166021 
L 810.910633 43.327054 
L 818.680877 44.005784 
L 808.524693 52.372239 
L 821.30334 53.810077 
L 828.683362 49.099914 
L 847.991948 48.719119 
L 863.289526 43.003889 
L 875.027305 51.308854 
L 886.734179 42.178466 
L 875.939815 34.191564 
L 881.296615 29.64188 
L 911.72736 33.813941 
L 925.985874 38.123112 
L 963.319113 53.874738 
L 970.205897 46.660042 
L 959.737062 39.370483 
L 959.436051 36.445864 
L 947.021255 35.093091 
L 950.417466 28.556436 
L 944.907791 17.800432 
L 944.596067 13.387514 
L 963.606526 0.903043 
L 970.367425 -11.627338 
L 978.028062 -14.338398 
L 1005.301797 -10.702649 
L 1007.449564 -3.03395 
L 997.68453 8.148346 
L 1004.092087 12.543479 
L 1007.406813 22.181226 
L 1005.06651 41.073306 
L 1016.430858 49.523999 
L 1012.009746 58.726769 
L 991.832123 78.309712 
L 1003.606885 80.340939 
L 1007.704424 75.377648 
L 1019.038383 71.837304 
L 1021.773648 65.015122 
L 1030.689526 58.450066 
L 1024.686408 50.611925 
L 1029.492899 41.509938 
L 1018.228373 40.37555 
L 1015.750956 32.707678 
L 1023.970863 18.863955 
L 1010.592255 7.621824 
L 1029.029124 -1.670837 
L 1026.6437 -11.474441 
L 1031.781592 -11.787404 
L 1037.195051 -4.143797 
L 1033.130785 9.160582 
L 1044.15477 11.679315 
L 1039.457475 1.737014 
L 1056.697305 -3.683452 
L 1078.076809 -4.413331 
L 1097.113846 3.44673 
L 1087.952791 -8.035707 
L 1086.926552 -22.723603 
L 1104.84 -25.505804 
L 1129.617878 -24.897939 
L 1151.941724 -26.703612 
L 1143.569252 -33.911276 
L 1155.49081 -42.965975 
L 1167.326145 -43.345115 
L 1187.355323 -50.184393 
L 1214.55736 -52.022603 
L 1217.994262 -55.798427 
L 1245.043938 -57.077854 
L 1253.47276 -53.982414 
L 1276.592812 -61.308922 
L 1295.518077 -61.079921 
L 1298.357696 -67.030494 
L 1308.201023 -72.898897 
L 1332.520482 -78.556774 
L 1350.188033 -74.089398 
L 1336.161046 -70.691059 
L 1359.49537 -68.578765 
L 1362.275446 -61.765407 
L 1371.688992 -65.120454 
L 1401.805128 -64.936399 
L 1425.027371 -58.21169 
L 1433.296004 -53.047109 
L 1430.733187 -45.879978 
L 1419.337522 -41.800015 
L 1392.2658 -34.146481 
L 1384.526769 -30.055488 
L 1397.300677 -28.125319 
L 1412.53861 -24.64743 
L 1421.8136 -27.255778 
L 1427.067796 -18.406229 
L 1431.592541 -21.988485 
L 1448.064804 -24.166405 
L 1481.117393 -21.88977 
L 1483.627569 -15.441352 
L 1526.694799 -13.390134 
L 1527.28312 -23.920722 
L 1549.145354 -21.507597 
L 1565.591142 -21.583287 
L 1582.226272 -14.320613 
L 1586.968173 -5.497121 
L 1580.874092 0.275738 
L 1593.812722 11.125494 
L 1610.012818 16.723673 
L 1619.952978 2.256919 
L 1636.478294 8.459379 
L 1654.034897 4.753041 
L 1673.974761 8.994174 
L 1681.562256 5.128321 
L 1698.412895 7.061247 
L 1690.976008 -5.737979 
L 1704.576717 -11.710749 
L 1797.618462 -2.757384 
L 1806.386925 5.426119 
L 1833.353468 15.962222 
L 1874.950875 13.353874 
L 1895.460311 15.624442 
L 1904.036547 21.325058 
L 1902.783365 31.406882 
L 1915.473521 35.332019 
L 1929.262543 32.509009 
L 1947.531394 32.147929 
L 1966.979565 34.853475 
L 1986.504071 33.327262 
L 2004.448939 45.582319 
L 2017.215121 41.172848 
L 2008.884473 32.361213 
L 2013.471233 26.236097 
L 2046.337879 30.09092 
L 2067.766315 29.266187 
L 2097.393231 35.845995 
L 2111.815385 41.862106 
L 2111.815385 96.788202 
L 2111.741317 96.862358 
L 2098.497556 102.920331 
L 2085.147586 101.910026 
L 2094.436689 109.248528 
L 2100.56868 120.6084 
L 2105.328918 124.321907 
L 2106.524102 130.02528 
L 2103.865172 133.676609 
L 2084.66362 130.673817 
L 2055.870717 141.051922 
L 2046.711001 142.65865 
L 2030.948308 152.345479 
L 2015.995625 160.808167 
L 2012.208264 167.073081 
L 1997.473046 157.535565 
L 1970.632594 168.358298 
L 1965.9456 163.237146 
L 1956.02254 169.143463 
L 1942.244747 167.253139 
L 1938.925798 176.320797 
L 1926.566218 189.662814 
L 1926.933365 195.234936 
L 1938.666199 198.324447 
L 1937.286102 218.395309 
L 1927.722566 218.906114 
L 1923.312271 230.439012 
L 1927.59802 236.374833 
L 1909.583514 243.41733 
L 1906.008468 259.158685 
L 1890.651037 262.521177 
L 1887.563048 276.528551 
L 1872.714514 289.372998 
L 1868.905108 279.874499 
L 1864.494195 259.760071 
L 1858.744288 229.124429 
L 1863.696856 210.003486 
L 1872.388573 201.775727 
L 1872.926313 195.332547 
L 1888.934698 192.248275 
L 1907.336439 174.890266 
L 1925.069507 160.71414 
L 1943.588068 149.713555 
L 1951.869063 130.277995 
L 1939.351354 131.440784 
L 1933.165177 142.798036 
L 1907.036046 157.939798 
L 1898.597438 140.985607 
L 1872.002574 145.666818 
L 1846.221738 168.777007 
L 1854.727615 177.231561 
L 1831.735612 180.831326 
L 1815.808197 182.250827 
L 1816.554234 172.281918 
L 1800.541111 170.189477 
L 1787.778535 176.962302 
L 1756.280654 174.592468 
L 1722.394773 178.678774 
L 1689.024588 205.589879 
L 1649.546105 238.105781 
L 1665.776385 239.843484 
L 1670.841754 248.477268 
L 1680.847433 251.542238 
L 1687.439696 244.65512 
L 1698.739248 245.549477 
L 1713.612609 260.716607 
L 1713.962037 272.44652 
L 1705.908191 286.221033 
L 1705.03936 302.684547 
L 1700.39182 324.727352 
L 1684.865239 344.677854 
L 1681.41412 354.214267 
L 1667.430915 370.268448 
L 1653.555052 386.185448 
L 1646.90067 394.330623 
L 1633.173664 402.419961 
L 1626.677514 402.598915 
L 1620.206087 395.897507 
L 1606.379362 405.987051 
L 1604.773712 410.574369 
L 1604.773699 410.574404 
L 1604.773662 410.574512 
L 1604.773582 410.574379 
L 1603.331446 408.1618 
L 1603.331443 408.161466 
L 1603.268261 401.157843 
L 1608.530508 400.785939 
L 1610.012562 384.496279 
L 1607.299496 372.688604 
L 1616.140938 367.819041 
L 1628.643562 370.260313 
L 1635.571594 356.847886 
L 1639.101993 341.743583 
L 1643.103729 336.697984 
L 1648.517203 324.29279 
L 1631.491689 328.357011 
L 1622.561225 333.795699 
L 1606.908758 333.779568 
L 1602.736979 320.825965 
L 1590.535059 311.024668 
L 1572.606078 306.617404 
L 1568.795082 293.112738 
L 1565.207065 284.646233 
L 1561.346486 278.712875 
L 1554.979619 264.808171 
L 1545.933451 259.731189 
L 1530.514712 255.626062 
L 1516.857735 255.99933 
L 1504.056393 258.485455 
L 1495.547363 265.344653 
L 1501.19982 268.621251 
L 1501.327673 276.233235 
L 1495.598781 280.652771 
L 1486.299685 295.275593 
L 1486.393128 301.342351 
L 1471.876032 310.054299 
L 1459.509617 304.849074 
L 1447.218795 305.99827 
L 1441.825057 301.378687 
L 1435.647706 299.888935 
L 1420.558869 309.605093 
L 1406.996803 311.888168 
L 1397.527419 315.305121 
L 1384.551999 313.060163 
L 1374.999569 313.203723 
L 1368.746624 306.156436 
L 1358.657589 299.530568 
L 1348.333256 297.71451 
L 1335.301692 299.51645 
L 1325.566382 302.071909 
L 1310.931445 296.273215 
L 1308.967148 285.941985 
L 1296.855324 282.399494 
L 1287.504121 280.78435 
L 1275.963908 275.085391 
L 1265.294082 289.373754 
L 1269.476731 297.488661 
L 1259.46362 307.089192 
L 1244.570274 303.623022 
L 1234.28861 303.127061 
L 1227.403237 296.687145 
L 1216.655062 296.483741 
L 1207.69789 292.252801 
L 1192.028796 298.737601 
L 1172.372424 310.612154 
L 1161.511486 313.001741 
L 1157.480556 314.135263 
L 1152.014419 305.701887 
L 1138.745144 307.546799 
L 1134.359672 301.695018 
L 1127.15702 299.019023 
L 1122.199275 291.052307 
L 1116.511682 288.571525 
L 1101.708183 292.114584 
L 1087.517416 284.171379 
L 1082.027856 291.390013 
L 1059.007586 256.375864 
L 1045.865541 245.724247 
L 1049.635089 241.401759 
L 1023.816546 254.412124 
L 1013.935915 255.198526 
L 1014.789267 247.673535 
L 1001.558321 242.971662 
L 990.803319 246.326988 
L 987.559731 232.037556 
L 969.04684 229.066246 
L 959.785071 234.785866 
L 934.008248 239.875194 
L 928.977632 243.28087 
L 890.429959 248.078412 
L 885.706358 252.78329 
L 893.143242 262.227289 
L 883.253837 265.812026 
L 885.183061 269.568109 
L 875.296317 276.284103 
L 891.989647 285.766219 
L 889.408298 292.295548 
L 874.93858 291.701001 
L 871.945727 295.792296 
L 858.770447 288.647944 
L 842.439006 288.924923 
L 831.508662 294.740798 
L 819.311006 289.163579 
L 796.60482 279.617342 
L 780.513042 279.974284 
L 759.247919 294.969406 
L 757.964963 305.038944 
L 747.371263 297.043374 
L 739.151829 312.190963 
L 742.160653 315.003038 
L 736.21434 325.45196 
L 744.958226 334.803661 
L 752.602071 334.41873 
L 759.169132 343.630349 
L 758.123695 350.724935 
L 763.35595 352.954418 
" clip-path="url(#pbda7d72352)" style="fill: #1a1a1a"/>
    <path d="M 1223.592633 -124.421449 
L 1245.877281 -127.534535 
L 1265.892707 -120.593855 
L 1289.615141 -107.264108 
L 1287.071743 -94.866977 
L 1264.59564 -93.147197 
L 1235.90225 -97.125344 
L 1218.804684 -102.38857 
L 1210.898459 -112.27779 
L 1196.843761 -115.003051 
L 1223.592633 -124.421449 
" clip-path="url(#pbda7d72352)" style="fill: #1a1a1a"/>
    <path d="M 1316.926168 -100.386571 
L 1343.036602 -92.556289 
L 1339.977457 -86.952595 
L 1281.904285 -81.63236 
L 1300.722724 -99.73445 
L 1309.184922 -101.284375 
L 1316.926168 -100.386571 
" clip-path="url(#pbda7d72352)" style="fill: #1a1a1a"/>
    <path d="M 1687.71212 -57.033184 
L 1714.913745 -56.428352 
L 1752.150407 -49.11763 
L 1744.050462 -38.879118 
L 1706.077033 -39.26074 
L 1688.993271 -36.004269 
L 1668.585408 -44.968387 
L 1674.121146 -54.446895 
L 1687.71212 -57.033184 
" clip-path="url(#pbda7d72352)" style="fill: #1a1a1a"/>
    <path d="M 1784.455465 -46.128901 
L 1810.306557 -42.519692 
L 1798.400606 -37.071928 
L 1781.934009 -38.304961 
L 1762.790917 -43.745625 
L 1765.256024 -48.210382 
L 1784.455465 -46.128901 
" clip-path="url(#pbda7d72352)" style="fill: #1a1a1a"/>
    <path d="M 1698.343772 -18.885738 
L 1708.115708 -24.334743 
L 1720.99634 -25.610309 
L 1735.632353 -20.339155 
L 1736.879046 -16.715815 
L 1721.259647 -16.619306 
L 1700.146901 -18.156272 
L 1698.343772 -18.885738 
" clip-path="url(#pbda7d72352)" style="fill: #1a1a1a"/>
    <path d="M 719.531125 -118.427031 
L 739.641588 -120.937737 
L 755.293115 -121.104452 
L 757.398014 -117.389691 
L 763.315048 -120.690513 
L 773.025053 -122.96397 
L 788.303937 -119.942432 
L 784.319854 -117.840678 
L 770.490018 -116.022839 
L 761.22612 -114.976949 
L 759.789316 -112.714536 
L 747.748697 -110.435736 
L 736.589112 -113.704141 
L 742.45717 -118.008106 
L 719.531125 -118.427031 
" clip-path="url(#pbda7d72352)" style="fill: #1a1a1a"/>
    <path d="M 491.703749 243.648855 
L 472.760722 243.855824 
L 460.073302 242.290196 
L 462.420418 236.222896 
L 476.636206 231.751504 
L 487.424746 234.166739 
L 491.97844 236.355057 
L 490.879144 240.130376 
L 491.703749 243.648855 
" clip-path="url(#pbda7d72352)" style="fill: #1a1a1a"/>
    <path d="M 808.756167 -24.124547 
L 833.419792 -36.224949 
L 830.632957 -42.483188 
L 853.674522 -49.76238 
L 887.684026 -58.620382 
L 921.970884 -61.200908 
L 939.613388 -66.312088 
L 959.661034 -68.10321 
L 966.822163 -62.658955 
L 959.903252 -58.368884 
L 923.402364 -51.532128 
L 891.943333 -44.957558 
L 859.942372 -31.834777 
L 844.590024 -18.378566 
L 828.442883 -5.118637 
L 830.539264 6.333783 
L 850.244612 17.640862 
L 844.159356 18.850261 
L 810.498006 17.05914 
L 807.764405 10.937693 
L 789.117363 7.241456 
L 787.611886 -0.205164 
L 798.145432 -3.163294 
L 797.794083 -10.68116 
L 818.226616 -22.438869 
L 808.756167 -24.124547 
" clip-path="url(#pbda7d72352)" style="fill: #1a1a1a"/>
    <path d="M 1729.77887 252.237547 
L 1733.345593 265.525618 
L 1733.082082 279.093329 
L 1737.333935 293.005157 
L 1747.698726 317.424686 
L 1732.450186 312.872786 
L 1726.112066 332.794562 
L 1736.154255 346.924046 
L 1735.863593 356.558628 
L 1728.05939 348.247083 
L 1721.304974 358.918292 
L 1719.398108 347.348672 
L 1720.546913 333.917397 
L 1719.372556 319.040543 
L 1721.755872 308.617981 
L 1722.211028 290.182395 
L 1716.175281 276.628577 
L 1717.086659 257.788314 
L 1726.609277 251.443867 
L 1722.51766 245.055961 
L 1727.10223 243.12021 
L 1729.77887 252.237547 
" clip-path="url(#pbda7d72352)" style="fill: #1a1a1a"/>
    <path d="M -1544.491634 66.096016 
L -1545.377566 74.665139 
L -1538.430003 78.095188 
L -1540.819856 68.077197 
L -1512.856227 70.132965 
L -1492.688596 83.035317 
L -1502.902469 89.044347 
L -1519.788545 90.471017 
L -1520.043508 103.942494 
L -1524.167523 106.811552 
L -1533.815016 106.399185 
L -1541.665613 101.592375 
L -1555.362641 97.571695 
L -1557.666374 91.591067 
L -1568.127587 89.33594 
L -1579.843217 91.12438 
L -1585.44097 86.30006 
L -1583.203373 81.175875 
L -1595.541114 84.450958 
L -1590.894193 90.937015 
L -1596.738462 96.788202 
L -1596.738462 41.862106 
L -1571.499692 52.3903 
L -1544.491634 66.096016 
" clip-path="url(#pbda7d72352)" style="fill: #1a1a1a"/>
    <path d="M -1583.282386 15.261846 
L -1596.738462 16.100377 
L -1596.738462 6.676808 
L -1595.418577 6.099058 
L -1586.68756 6.127873 
L -1571.787569 10.071622 
L -1572.66969 11.956432 
L -1583.282386 15.261846 
" clip-path="url(#pbda7d72352)" style="fill: #1a1a1a"/>
    <path d="M 601.980579 358.847123 
L 604.694764 355.432716 
L 612.018538 358.388776 
L 615.331675 358.933313 
L 616.668554 361.656 
L 618.222715 362.075912 
L 618.306454 363.268566 
L 623.346181 366.594324 
L 633.853641 365.767159 
L 631.841903 370.685976 
L 620.564669 373.074138 
L 606.580452 381.050115 
L 600.851869 378.245877 
L 603.123392 371.767488 
L 591.866388 367.732121 
L 593.685949 365.088898 
L 603.548205 360.506363 
L 601.980579 358.847123 
" clip-path="url(#pbda7d72352)" style="fill: #1a1a1a"/>
    <path d="M 413.532804 -105.805107 
L 417.444607 -110.517063 
L 432.570356 -110.996572 
L 445.56039 -106.18342 
L 479.473055 -95.90334 
L 453.549645 -90.478049 
L 447.825596 -80.332116 
L 438.787953 -77.73011 
L 433.882257 -66.306956 
L 421.468388 -65.769818 
L 399.314312 -74.178461 
L 408.657498 -79.076954 
L 393.215904 -83.065235 
L 373.14552 -94.706497 
L 365.133189 -105.502897 
L 393.217655 -110.43958 
L 398.860323 -105.613193 
L 413.532804 -105.805107 
" clip-path="url(#pbda7d72352)" style="fill: #1a1a1a"/>
    <path d="M 577.927044 33.666268 
L 560.399057 39.19732 
L 552.079324 40.467689 
L 556.443502 30.79321 
L 543.223735 25.310126 
L 527.228845 29.982431 
L 522.176874 40.090798 
L 512.354012 46.192296 
L 501.293976 42.860126 
L 487.842105 43.542662 
L 476.393988 36.253495 
L 470.219831 39.895941 
L 463.82954 40.462702 
L 462.318208 49.533729 
L 442.902989 47.325106 
L 440.176309 55.002207 
L 430.28371 54.955541 
L 423.48298 64.764675 
L 413.178344 80.048699 
L 397.182921 99.44468 
L 400.934901 104.15439 
L 397.350078 109.618237 
L 387.131149 109.382413 
L 380.44168 122.313186 
L 381.075173 140.621598 
L 387.658705 147.608683 
L 384.251153 163.817123 
L 375.679306 173.268603 
L 371.137323 181.213232 
L 364.22693 172.752782 
L 343.885961 188.697612 
L 330.151414 191.929326 
L 315.905283 184.908044 
L 312.221443 170.086049 
L 308.964546 138.269059 
L 318.450433 129.397521 
L 345.651755 117.822914 
L 365.990063 103.594397 
L 384.848446 84.379737 
L 409.600973 57.758354 
L 426.853799 47.382815 
L 455.163467 30.090725 
L 477.76904 24.055842 
L 494.718428 24.787894 
L 510.405623 13.366465 
L 529.190543 13.97633 
L 547.686931 11.229801 
L 579.908815 21.317506 
L 566.640604 25.005906 
L 577.927044 33.666268 
" clip-path="url(#pbda7d72352)" style="fill: #1a1a1a"/>
    <path d="M 539.877936 -111.073031 
L 524.602246 -103.647784 
L 494.725881 -102.023378 
L 464.343787 -104.323195 
L 462.510917 -108.122026 
L 447.72818 -108.36355 
L 436.455738 -114.691966 
L 468.266651 -118.542094 
L 483.223997 -115.226666 
L 493.642023 -119.355365 
L 519.688153 -115.911339 
L 539.877936 -111.073031 
" clip-path="url(#pbda7d72352)" style="fill: #1a1a1a"/>
    <path d="M 512.234935 -80.706568 
L 489.223358 -75.068821 
L 471.048251 -78.268903 
L 478.157342 -81.825928 
L 471.93305 -86.232091 
L 493.281546 -88.993749 
L 497.372081 -83.818139 
L 512.234935 -80.706568 
" clip-path="url(#pbda7d72352)" style="fill: #1a1a1a"/>
    <path d="M -274.616325 935.356674 
L -280.710099 947.973608 
L -283.873569 958.126147 
L -287.821453 963.363077 
L -292.753912 964.348407 
L -294.158775 960.467287 
L -296.463038 959.890908 
L -299.651795 963.62918 
L -304.150391 960.785044 
L -301.522994 954.987054 
L -300.616673 948.68108 
L -298.81601 942.749147 
L -302.860515 934.579381 
L -303.675271 925.147138 
L -298.31241 913.293246 
L -294.814094 914.810071 
L -287.228951 918.073133 
L -276.321698 929.710437 
L -274.616325 935.356674 
" clip-path="url(#pbda7d72352)" style="fill: #f15c21"/>
    <path d="M 321.267079 310.704774 
L 326.12847 314.314803 
L 340.973492 316.854006 
L 335.765011 326.294799 
L 334.457567 336.117114 
L 331.629209 338.472147 
L 326.935508 337.203257 
L 327.266627 340.706418 
L 319.732856 348.453696 
L 319.580605 354.696261 
L 324.499489 352.536085 
L 328.037998 358.582011 
L 327.613185 362.477737 
L 330.6449 367.654463 
L 327.073385 371.853696 
L 329.727134 382.521343 
L 335.310919 384.270429 
L 334.132303 390.254728 
L 324.799732 398.043685 
L 304.482186 394.310756 
L 289.477461 398.78393 
L 288.298845 407.086213 
L 276.357242 408.873416 
L 264.765924 402.636907 
L 261.020865 405.617479 
L 242.057609 399.351759 
L 237.951618 393.991575 
L 243.278812 385.722064 
L 245.24051 358.25428 
L 234.610078 343.785665 
L 227.012159 336.80998 
L 211.268536 331.507148 
L 210.230193 321.453641 
L 223.586507 318.454545 
L 240.885913 322.001522 
L 237.620498 306.395822 
L 247.345409 312.309943 
L 271.32976 301.558939 
L 274.422694 290.261478 
L 283.432131 287.477901 
L 284.924299 292.326184 
L 289.712758 292.553458 
L 294.502282 298.087126 
L 301.691092 304.587601 
L 306.977828 303.513926 
L 315.989926 309.799238 
L 318.294455 310.996169 
L 321.267079 310.704774 
" clip-path="url(#pbda7d72352)" style="fill: #f15c21"/>
    <path d="M 347.635811 404.947768 
L 354.269916 399.683053 
L 356.021337 411.505239 
L 352.619109 422.155431 
L 347.941911 419.348343 
L 345.556997 410.07106 
L 347.635811 404.947768 
" clip-path="url(#pbda7d72352)" style="fill: #f15c21"/>
    <path d="M 371.137323 181.213232 
L 375.679306 173.268603 
L 384.251153 163.817123 
L 387.658705 147.608683 
L 381.075173 140.621598 
L 380.44168 122.313186 
L 387.131149 109.382413 
L 397.350078 109.618237 
L 400.934901 104.15439 
L 397.182921 99.44468 
L 413.178344 80.048699 
L 423.48298 64.764675 
L 430.28371 54.955541 
L 440.176309 55.002207 
L 442.902989 47.325106 
L 462.318208 49.533729 
L 463.82954 40.462702 
L 470.219831 39.895941 
L 483.951183 46.643283 
L 500.031249 56.029929 
L 500.303278 77.261204 
L 503.780035 82.626019 
L 486.059276 86.530294 
L 476.070322 96.149914 
L 477.678541 104.593265 
L 461.291311 115.678413 
L 441.398045 127.537291 
L 433.896215 146.952508 
L 441.228759 156.666529 
L 451.0809 164.313707 
L 441.618969 179.867397 
L 430.904958 183.092698 
L 426.975174 206.236926 
L 421.124684 219.152737 
L 408.627844 217.821151 
L 402.797582 228.755614 
L 390.870353 229.390415 
L 387.59642 216.357048 
L 378.972403 200.712519 
L 371.137323 181.213232 
" clip-path="url(#pbda7d72352)" style="fill: #1a1a1a"/>
    <path d="M 547.801917 218.258957 
L 558.647418 221.71652 
L 560.110839 225.139172 
L 565.516288 223.493392 
L 575.587224 226.78139 
L 576.596021 233.253367 
L 574.388379 236.972759 
L 580.84681 245.999257 
L 585.039041 248.514236 
L 584.419389 251.00428 
L 591.365982 253.430559 
L 594.333283 257.106491 
L 590.324711 260.121617 
L 582.012611 259.643157 
L 580.03019 260.931326 
L 582.449174 265.507806 
L 584.982854 274.336569 
L 584.983085 274.336602 
L 576.1398 275.154499 
L 572.965949 278.181381 
L 572.303177 285.120375 
L 568.205704 283.788076 
L 558.909332 284.448526 
L 556.20927 281.225006 
L 552.3439 283.628486 
L 548.470545 281.636094 
L 540.35758 281.359304 
L 528.859955 278.050645 
L 518.453641 276.970201 
L 510.473231 277.276202 
L 504.827693 281.012693 
L 499.903486 281.550243 
L 499.70705 275.41241 
L 496.52894 269.024503 
L 502.706824 266.210291 
L 502.765914 260.714383 
L 499.908277 255.469973 
L 499.461106 249.370968 
L 509.418119 249.464657 
L 520.602192 244.270831 
L 522.992962 236.487574 
L 531.438643 232.072822 
L 530.470836 225.897229 
L 536.735493 223.578175 
L 547.801917 218.258957 
" clip-path="url(#pbda7d72352)" style="fill: #1a1a1a"/>
    <path d="M 584.983085 274.336602 
L 588.83017 274.893974 
L 591.432525 271.758208 
L 594.561127 272.450718 
L 605.243197 271.118776 
L 611.826197 278.924832 
L 609.253365 281.716246 
L 610.106717 285.995987 
L 618.320827 286.663561 
L 621.985362 292.642015 
L 621.760852 295.35449 
L 634.844338 300.202061 
L 642.748623 298.01873 
L 649.10644 304.475033 
L 655.126217 304.326129 
L 670.311218 308.812557 
L 670.432251 312.860674 
L 666.248394 320.079643 
L 668.524725 327.681889 
L 666.903857 332.279454 
L 656.93498 333.290271 
L 651.624973 337.139848 
L 651.299709 343.264145 
L 643.074951 344.366675 
L 636.221519 348.827024 
L 626.577525 349.554088 
L 617.70437 354.693411 
L 618.222715 362.075912 
L 616.668554 361.656 
L 615.331675 358.933313 
L 612.018538 358.388776 
L 604.694764 355.432716 
L 601.980579 358.847123 
L 600.564934 357.348745 
L 584.551943 353.864109 
L 583.842857 348.723005 
L 574.29788 350.420795 
L 570.474566 358.013113 
L 562.497882 368.203056 
L 557.825474 365.83698 
L 552.984313 368.055221 
L 548.387499 365.514949 
L 550.98056 364.01736 
L 552.780424 359.287346 
L 555.600265 354.891474 
L 554.871482 352.422804 
L 557.02589 351.322768 
L 558.041075 353.231089 
L 564.111957 353.634697 
L 566.838637 352.615168 
L 564.91793 351.217324 
L 565.645648 349.162592 
L 562.048581 345.657651 
L 560.559607 339.893858 
L 556.807095 337.63857 
L 557.547057 332.96662 
L 552.892749 329.257203 
L 548.655269 328.741383 
L 541.06294 324.445968 
L 534.215364 325.809615 
L 531.758583 327.842972 
L 527.412504 327.840835 
L 524.821573 331.063287 
L 517.216999 332.388104 
L 513.699784 334.504819 
L 508.917181 331.135957 
L 502.312887 331.08466 
L 495.9391 329.557861 
L 491.491875 332.510291 
L 490.773739 328.814766 
L 485.054205 325.064383 
L 487.065411 319.506491 
L 489.921984 315.917123 
L 492.170617 316.721489 
L 489.513142 310.525946 
L 498.867539 299.05892 
L 503.979665 297.454463 
L 505.084284 293.58688 
L 499.903486 281.550243 
L 504.827693 281.012693 
L 510.473231 277.276202 
L 518.453641 276.970201 
L 528.859955 278.050645 
L 540.35758 281.359304 
L 548.470545 281.636094 
L 552.3439 283.628486 
L 556.20927 281.225006 
L 558.909332 284.448526 
L 568.205704 283.788076 
L 572.303177 285.120375 
L 572.965949 278.181381 
L 576.1398 275.154499 
L 584.983085 274.336602 
" clip-path="url(#pbda7d72352)" style="fill: #1a1a1a"/>
    <path d="M 499.461106 249.370968 
L 499.908277 255.469973 
L 502.765914 260.714383 
L 502.706824 266.210291 
L 496.52894 269.024503 
L 499.70705 275.41241 
L 499.903486 281.550243 
L 505.084284 293.58688 
L 503.979665 297.454463 
L 498.867539 299.05892 
L 489.513142 310.525946 
L 492.170617 316.721489 
L 489.921984 315.917123 
L 480.132127 310.617854 
L 472.716537 312.566429 
L 467.853017 311.150773 
L 461.766697 314.105696 
L 456.571525 309.21894 
L 452.336174 311.090214 
L 451.754851 310.257706 
L 447.013771 303.469041 
L 439.354898 302.636177 
L 438.37751 298.319388 
L 431.312736 296.777627 
L 429.774786 300.337784 
L 424.178757 297.485811 
L 424.821299 293.69268 
L 417.119307 292.493255 
L 412.236622 288.054637 
L 408.014048 279.251494 
L 408.816827 274.498325 
L 406.26795 267.123663 
L 402.527682 262.209834 
L 405.399693 258.529984 
L 402.992953 251.514401 
L 410.03111 247.465497 
L 426.107449 241.089702 
L 439.08074 236.424521 
L 449.361953 238.75355 
L 450.138646 242.115999 
L 460.073302 242.290196 
L 472.760722 243.855824 
L 491.703749 243.648855 
L 496.98729 245.123645 
L 499.461106 249.370968 
" clip-path="url(#pbda7d72352)" style="fill: #1a1a1a"/>
    <path d="M 432.455152 329.183464 
L 431.673135 334.817232 
L 425.87162 334.844306 
L 427.866855 337.832358 
L 424.44706 346.708171 
L 422.483233 349.035062 
L 413.473796 349.378467 
L 408.27543 352.506518 
L 399.766399 351.438186 
L 385.0353 347.877673 
L 382.733965 343.082112 
L 372.553366 345.478467 
L 371.355586 348.101029 
L 365.114352 346.140698 
L 359.85796 345.765945 
L 355.196732 343.255596 
L 356.772479 339.880678 
L 356.373751 337.434094 
L 359.483188 336.6739 
L 364.695928 340.502654 
L 366.163075 336.864127 
L 375.248105 337.451905 
L 382.613122 334.979673 
L 387.551703 335.402874 
L 390.764416 338.225636 
L 391.724769 335.882715 
L 390.264542 326.899677 
L 393.965417 325.149165 
L 397.597619 318.792607 
L 405.251168 323.230157 
L 411.046295 317.589976 
L 414.672109 316.560473 
L 422.668489 320.767899 
L 427.506457 320.052234 
L 432.255522 322.655559 
L 431.428255 324.406071 
L 432.455152 329.183464 
" clip-path="url(#pbda7d72352)" style="fill: #1a1a1a"/>
    <path d="M 485.054205 325.064383 
L 490.773739 328.814766 
L 491.491875 332.510291 
L 485.200068 335.402161 
L 480.324837 344.752472 
L 474.096912 354.10207 
L 465.837552 356.702545 
L 459.407868 356.092324 
L 451.514763 359.716246 
L 451.514626 359.716319 
L 447.664299 361.775965 
L 439.155268 359.124905 
L 431.45434 353.212209 
L 428.181472 351.514775 
L 426.179848 346.860638 
L 424.44706 346.708171 
L 427.866855 337.832358 
L 425.87162 334.844306 
L 431.673135 334.817232 
L 432.455152 329.183464 
L 437.696638 332.713341 
L 441.4944 334.21663 
L 450.141308 332.52739 
L 450.970704 329.758774 
L 455.063919 329.350535 
L 460.080754 327.210309 
L 461.194424 328.09162 
L 466.031859 326.369964 
L 468.447648 323.126138 
L 471.823792 322.28508 
L 482.856146 326.474695 
L 485.054205 325.064383 
" clip-path="url(#pbda7d72352)" style="fill: #1a1a1a"/>
    <path d="M 531.758583 327.842972 
L 534.215364 325.809615 
L 541.06294 324.445968 
L 548.655269 328.741383 
L 552.892749 329.257203 
L 557.547057 332.96662 
L 556.807095 337.63857 
L 560.559607 339.893858 
L 562.048581 345.657651 
L 565.645648 349.162592 
L 564.91793 351.217324 
L 566.838637 352.615168 
L 564.111957 353.634697 
L 558.041075 353.231089 
L 557.02589 351.322768 
L 554.871482 352.422804 
L 555.600265 354.891474 
L 552.780424 359.287346 
L 550.98056 364.01736 
L 548.387499 365.514949 
L 546.542385 359.223937 
L 547.629969 353.337245 
L 547.300447 347.285976 
L 541.35786 339.087711 
L 538.089251 333.274403 
L 534.898897 329.18667 
L 531.758583 327.842972 
" clip-path="url(#pbda7d72352)" style="fill: #1a1a1a"/>
    <path d="M 548.387499 365.514949 
L 552.984313 368.055221 
L 557.825474 365.83698 
L 562.497882 368.203056 
L 562.737438 371.758939 
L 557.741896 374.725618 
L 554.612762 373.434286 
L 551.730636 390.066995 
L 545.673595 388.619278 
L 538.177088 383.607486 
L 526.049697 386.812839 
L 520.941297 390.32918 
L 505.812535 389.603897 
L 497.897071 387.453696 
L 493.905535 388.46325 
L 490.941961 382.794927 
L 489.055324 380.391803 
L 491.442366 378.064912 
L 488.900943 376.348243 
L 485.666937 379.437821 
L 479.660468 375.432377 
L 478.851833 369.749092 
L 472.575997 366.506335 
L 471.420805 362.11937 
L 465.837552 356.702545 
L 474.096912 354.10207 
L 480.324837 344.752472 
L 485.200068 335.402161 
L 491.491875 332.510291 
L 495.9391 329.557861 
L 502.312887 331.08466 
L 508.917181 331.135957 
L 513.699784 334.504819 
L 517.216999 332.388104 
L 524.821573 331.063287 
L 527.412504 327.840835 
L 531.758583 327.842972 
L 534.898897 329.18667 
L 538.089251 333.274403 
L 541.35786 339.087711 
L 547.300447 347.285976 
L 547.629969 353.337245 
L 546.542385 359.223937 
L 548.387499 365.514949 
" clip-path="url(#pbda7d72352)" style="fill: #1a1a1a"/>
    <path d="M 530.470836 225.897229 
L 531.438643 232.072822 
L 522.992962 236.487574 
L 520.602192 244.270831 
L 509.418119 249.464657 
L 499.461106 249.370968 
L 496.98729 245.123645 
L 491.703749 243.648855 
L 490.879144 240.130376 
L 491.97844 236.355057 
L 487.424746 234.166739 
L 476.636206 231.751504 
L 474.445599 220.162291 
L 486.244533 215.933491 
L 503.521314 216.817653 
L 513.641758 215.454719 
L 515.086548 218.322366 
L 520.568122 219.207952 
L 530.470836 225.897229 
" clip-path="url(#pbda7d72352)" style="fill: #1a1a1a"/>
    <path d="M 538.648747 200.261533 
L 543.612348 203.43625 
L 544.490721 210.121964 
L 547.801917 218.258957 
L 536.735493 223.578175 
L 530.470836 225.897229 
L 520.568122 219.207952 
L 515.086548 218.322366 
L 513.641758 215.454719 
L 503.521314 216.817653 
L 486.244533 215.933491 
L 474.445599 220.162291 
L 474.802272 209.783546 
L 479.864889 201.125389 
L 489.573829 196.417105 
L 497.754402 206.717835 
L 506.019085 206.449594 
L 507.998351 195.864949 
L 516.77249 193.428339 
L 521.28679 195.119004 
L 530.153558 200.235884 
L 538.648747 200.261533 
" clip-path="url(#pbda7d72352)" style="fill: #1a1a1a"/>
    <path d="M 545.787116 172.67604 
L 545.787045 172.676086 
L 547.338243 175.082523 
L 540.008191 183.027306 
L 543.062967 195.885966 
L 538.648747 200.261533 
L 530.153558 200.235884 
L 521.28679 195.119004 
L 516.77249 193.428339 
L 507.998351 195.864949 
L 509.194001 187.730806 
L 505.405822 189.468493 
L 498.868071 184.568913 
L 497.974261 176.648508 
L 510.999722 172.807285 
L 523.9794 170.80492 
L 535.15602 173.083719 
L 545.786985 172.675837 
L 545.787116 172.67604 
" clip-path="url(#pbda7d72352)" style="fill: #1a1a1a"/>
    <path d="M 402.992953 251.514401 
L 405.399693 258.529984 
L 402.527682 262.209834 
L 406.26795 267.123663 
L 408.816827 274.498325 
L 408.014048 279.251494 
L 412.236622 288.054637 
L 407.639276 289.493091 
L 404.92271 287.908582 
L 402.339231 290.532925 
L 394.941741 293.203221 
L 391.116829 296.638341 
L 383.630437 299.640287 
L 385.434028 303.737994 
L 386.524274 309.552015 
L 391.781198 312.865661 
L 397.597619 318.792607 
L 393.965417 325.149165 
L 390.264542 326.899677 
L 391.724769 335.882715 
L 390.764416 338.225636 
L 387.551703 335.402874 
L 382.613122 334.979673 
L 375.248105 337.451905 
L 366.163075 336.864127 
L 364.695928 340.502654 
L 359.483188 336.6739 
L 356.373751 337.434094 
L 345.334476 333.218475 
L 343.219462 336.213652 
L 334.457567 336.117114 
L 335.765011 326.294799 
L 340.973492 316.854006 
L 326.12847 314.314803 
L 321.267079 310.704774 
L 321.848402 304.660272 
L 319.791414 301.546827 
L 320.961512 292.231427 
L 319.230853 277.784185 
L 325.419384 277.778486 
L 328.030545 272.588935 
L 330.597521 259.965588 
L 328.672023 255.30397 
L 330.683761 252.384313 
L 339.293938 251.634806 
L 341.20453 254.674869 
L 348.199566 247.878011 
L 345.844464 242.709834 
L 345.37174 234.89131 
L 353.157844 236.709505 
L 359.749362 234.610601 
L 359.931424 239.938725 
L 370.341465 243.151558 
L 370.231802 248.044726 
L 380.706256 245.45565 
L 386.497657 241.679618 
L 398.128369 247.123517 
L 402.992953 251.514401 
" clip-path="url(#pbda7d72352)" style="fill: #f15c21"/>
    <path d="M 490.941961 382.794927 
L 493.905535 388.46325 
L 497.897071 387.453696 
L 505.812535 389.603897 
L 520.941297 390.32918 
L 526.049697 386.812839 
L 538.177088 383.607486 
L 545.673595 388.619278 
L 551.730636 390.066995 
L 546.384278 395.778778 
L 542.622183 405.640278 
L 545.947754 413.50618 
L 537.078324 411.656993 
L 526.584173 415.994087 
L 526.471848 422.860053 
L 517.108401 424.161715 
L 509.850385 419.344425 
L 501.603269 423.133281 
L 493.983258 422.73466 
L 493.251813 413.617324 
L 488.092308 409.192242 
L 489.786768 407.246873 
L 488.669905 405.606792 
L 490.402693 401.219827 
L 494.329815 396.90945 
L 489.324691 390.958281 
L 488.400537 385.922622 
L 490.941961 382.794927 
" clip-path="url(#pbda7d72352)" style="fill: #1a1a1a"/>
    <path d="M 528.365937 505.980139 
L 527.078191 510.047211 
L 512.243816 511.219205 
L 512.347091 508.944324 
L 499.778917 506.255861 
L 501.684718 500.396242 
L 507.316414 505.042187 
L 515.334621 504.256701 
L 523.000947 505.235263 
L 522.751809 507.634468 
L 528.365937 505.980139 
" clip-path="url(#pbda7d72352)" style="fill: #1a1a1a"/>
    <path d="M 493.983258 422.73466 
L 501.603269 423.133281 
L 509.850385 419.344425 
L 517.108401 424.161715 
L 526.471848 422.860053 
L 526.584173 415.994087 
L 531.602606 419.644726 
L 528.413316 428.273316 
L 525.965054 429.819352 
L 519.688685 429.427499 
L 514.313048 428.124412 
L 501.837502 431.70808 
L 508.978401 439.458208 
L 503.7449 441.705303 
L 498.007267 441.719196 
L 492.557633 434.618831 
L 490.62415 437.644288 
L 492.926017 445.878531 
L 498.079666 452.348727 
L 494.196729 455.369553 
L 499.93383 461.723973 
L 505.033179 465.722293 
L 505.18756 473.511606 
L 495.658553 469.858117 
L 498.697188 476.88973 
L 492.155711 478.33709 
L 496.062604 490.504107 
L 489.220351 490.676522 
L 480.773073 484.679399 
L 476.909832 473.649823 
L 475.107306 464.476915 
L 471.089685 458.139593 
L 465.812 450.277609 
L 465.114625 446.351604 
L 469.904681 439.664821 
L 470.522736 435.184167 
L 473.870665 433.185007 
L 474.077215 429.562866 
L 480.815661 428.342068 
L 484.742783 425.328367 
L 490.325503 425.595539 
L 492.019711 423.192302 
L 493.983258 422.73466 
" clip-path="url(#pbda7d72352)" style="fill: #1a1a1a"/>
    <path d="M 474.077215 429.562866 
L 473.870665 433.185007 
L 470.522736 435.184167 
L 469.904681 439.664821 
L 465.114625 446.351604 
L 463.363205 445.386578 
L 463.157186 442.353285 
L 457.450961 437.724083 
L 456.55449 431.155212 
L 457.424876 421.747905 
L 458.830804 417.468164 
L 457.097483 415.295877 
L 457.097476 415.295833 
L 456.404368 410.908911 
L 460.870757 404.118822 
L 461.525544 406.712885 
L 464.29755 405.492239 
L 466.492339 409.192242 
L 468.95642 410.603878 
L 469.649678 415.6011 
L 469.649687 415.601166 
L 468.340647 420.293064 
L 469.803536 426.20576 
L 474.077215 429.562866 
" clip-path="url(#pbda7d72352)" style="fill: #1a1a1a"/>
    <path d="M 428.181472 351.514775 
L 431.45434 353.212209 
L 439.155268 359.124905 
L 447.664299 361.775965 
L 451.514626 359.716319 
L 454.017325 365.056838 
L 457.290193 368.986049 
L 453.324192 374.173807 
L 448.665111 371.122 
L 441.542311 371.312939 
L 432.686723 369.023809 
L 427.873776 369.329454 
L 425.640581 372.189976 
L 421.944498 369.023809 
L 419.787961 374.746279 
L 424.831946 381.192607 
L 427.065141 385.465223 
L 431.800898 390.614876 
L 435.72802 393.66705 
L 439.617345 399.426924 
L 448.735015 404.646135 
L 447.60202 406.990019 
L 447.602014 406.990031 
L 437.918094 401.888825 
L 431.943567 396.925481 
L 422.521562 392.827773 
L 413.858683 382.680934 
L 415.937497 381.650718 
L 411.240601 375.852371 
L 411.047892 371.198234 
L 404.425498 369.023809 
L 401.26815 374.974978 
L 398.22632 370.358957 
L 398.457359 365.571946 
L 398.824678 365.348946 
L 406.003906 365.819881 
L 407.890543 363.492991 
L 411.39445 365.743648 
L 415.437091 366.01082 
L 415.398762 362.157843 
L 418.979326 360.746462 
L 419.98067 355.17717 
L 428.181472 351.514775 
" clip-path="url(#pbda7d72352)" style="fill: #f15c21"/>
    <path d="M 356.373751 337.434094 
L 356.772479 339.880678 
L 355.196732 343.255596 
L 359.85796 345.765945 
L 365.114352 346.140698 
L 364.2972 351.792991 
L 359.758944 354.118456 
L 352.136271 352.390744 
L 349.905205 357.950773 
L 344.998033 358.388935 
L 343.212542 356.203824 
L 337.437112 360.879691 
L 332.470317 361.535154 
L 328.037998 358.582011 
L 324.499489 352.536085 
L 319.580605 354.696261 
L 319.732856 348.453696 
L 327.266627 340.706418 
L 326.935508 337.203257 
L 331.629209 338.472147 
L 334.457567 336.117114 
L 343.219462 336.213652 
L 345.334476 333.218475 
L 356.373751 337.434094 
" clip-path="url(#pbda7d72352)" style="fill: #1a1a1a"/>
    <path d="M 319.791414 301.546827 
L 321.848402 304.660272 
L 321.267079 310.704774 
L 318.294455 310.996169 
L 315.989926 309.799238 
L 317.106257 302.066922 
L 319.791414 301.546827 
" clip-path="url(#pbda7d72352)" style="fill: #1a1a1a"/>
    <path d="M 320.961512 292.231427 
L 319.791414 301.546827 
L 317.106257 302.066922 
L 315.989926 309.799238 
L 306.977828 303.513926 
L 301.691092 304.587601 
L 294.502282 298.087126 
L 289.712758 292.553458 
L 284.924299 292.326184 
L 283.432131 287.477901 
L 291.687764 284.758089 
L 291.68818 284.758149 
L 291.687764 284.758445 
L 299.229521 285.84067 
L 308.778224 282.976229 
L 315.29894 289.011113 
L 320.961512 292.231427 
" clip-path="url(#pbda7d72352)" style="fill: #f15c21"/>
    <path d="M 328.672023 255.30397 
L 330.597521 259.965588 
L 328.030545 272.588935 
L 325.419384 277.778486 
L 319.230853 277.784185 
L 320.961512 292.231427 
L 315.29894 289.011113 
L 308.778224 282.976229 
L 299.229521 285.84067 
L 291.687764 284.758445 
L 291.68818 284.758149 
L 296.996326 280.969945 
L 306.017474 260.685884 
L 320.111887 254.914611 
L 328.672023 255.30397 
" clip-path="url(#pbda7d72352)" style="fill: #f15c21"/>
    <path d="M 164.46594 415.254198 
L 168.204079 411.750681 
L 172.408021 409.740835 
L 174.990435 416.490671 
L 181.075159 416.474284 
L 182.838823 414.733391 
L 188.841565 415.215369 
L 191.721029 422.130495 
L 186.961317 425.863067 
L 186.828496 436.619772 
L 185.155596 438.637455 
L 184.741697 445.153604 
L 180.291012 446.288551 
L 184.417764 454.553787 
L 181.573967 463.611989 
L 185.126051 467.710766 
L 183.712404 471.459012 
L 179.89468 476.62897 
L 180.753621 481.19405 
L 176.61356 484.772019 
L 171.182559 482.833418 
L 165.866544 484.350956 
L 167.440161 473.56219 
L 166.472887 465.084642 
L 161.863296 463.812903 
L 159.400128 458.588442 
L 160.219942 449.563013 
L 164.326997 444.557989 
L 165.057909 438.985135 
L 167.207526 430.694607 
L 166.979149 424.853157 
L 164.919499 419.901924 
L 164.46594 415.254198 
" clip-path="url(#pbda7d72352)" style="fill: #1a1a1a"/>
    <path d="M 180.753621 481.19405 
L 179.89468 476.62897 
L 183.712404 471.459012 
L 185.126051 467.710766 
L 181.573967 463.611989 
L 184.417764 454.553787 
L 180.291012 446.288551 
L 184.741697 445.153604 
L 185.155596 438.637455 
L 186.828496 436.619772 
L 186.961317 425.863067 
L 191.721029 422.130495 
L 188.841565 415.215369 
L 182.838823 414.733391 
L 181.075159 416.474284 
L 174.990435 416.490671 
L 172.408021 409.740835 
L 168.204079 411.750681 
L 164.46594 415.254198 
L 164.984978 405.43509 
L 160.777309 399.453641 
L 175.350834 389.50344 
L 187.956805 391.99099 
L 201.787706 391.903714 
L 212.748992 394.258391 
L 221.302473 393.535245 
L 237.951618 393.991575 
L 242.057609 399.351759 
L 261.020865 405.617479 
L 264.765924 402.636907 
L 276.357242 408.873416 
L 288.298845 407.086213 
L 288.849824 415.094964 
L 279.087649 424.27749 
L 265.888111 427.191447 
L 264.969281 431.829554 
L 258.637548 439.472813 
L 254.667306 450.694753 
L 258.684927 458.57348 
L 252.72637 464.724494 
L 250.498499 473.686158 
L 242.720913 476.433756 
L 235.426697 487.034788 
L 222.350664 487.244964 
L 212.532061 486.983847 
L 206.080018 491.852435 
L 202.145443 497.061935 
L 197.105184 495.918082 
L 193.29092 491.260026 
L 190.370465 483.329289 
L 180.753621 481.19405 
" clip-path="url(#pbda7d72352)" style="fill: #1a1a1a"/>
    <path d="M 193.690712 249.990451 
L 195.38943 259.839839 
L 187.602794 272.152198 
L 169.340639 280.29774 
L 154.759129 278.213798 
L 163.11165 263.817854 
L 157.731753 249.800225 
L 171.747379 239.00291 
L 179.533482 232.562994 
L 181.657014 239.949768 
L 179.533482 247.337967 
L 185.904342 247.148453 
L 193.690712 249.990451 
" clip-path="url(#pbda7d72352)" style="fill: #1a1a1a"/>
    <path d="M 365.114352 346.140698 
L 371.355586 348.101029 
L 372.553366 345.478467 
L 382.733965 343.082112 
L 385.0353 347.877673 
L 399.766399 351.438186 
L 398.650068 358.228632 
L 401.117496 364.098581 
L 392.917226 362.090159 
L 384.541815 366.983327 
L 385.111426 373.827207 
L 383.850296 377.754993 
L 387.226972 384.774138 
L 396.886404 391.717762 
L 402.067202 403.11568 
L 413.530225 414.22612 
L 421.602731 414.140981 
L 424.113278 417.188168 
L 421.223168 419.934697 
L 430.449802 424.918347 
L 438.012852 429.088369 
L 446.846614 436.278504 
L 447.913437 438.85333 
L 445.988471 443.790314 
L 440.271067 437.353248 
L 431.321253 435.084423 
L 426.985821 444.002271 
L 434.431223 449.113095 
L 433.208955 456.307505 
L 428.905464 457.125051 
L 423.403128 468.949732 
L 419.108686 470.012008 
L 419.148612 465.796745 
L 421.250317 458.402134 
L 423.489368 455.457185 
L 419.466423 447.467315 
L 416.322384 440.514785 
L 412.046042 438.797046 
L 409.004745 432.846589 
L 402.385013 430.340159 
L 397.927674 424.798654 
L 390.305533 423.90523 
L 382.255918 417.681189 
L 372.832315 408.707413 
L 365.827697 400.765634 
L 362.614452 387.136652 
L 357.489017 385.533619 
L 349.108282 380.983144 
L 344.365605 382.845868 
L 338.413436 389.244105 
L 334.132303 390.254728 
L 335.310919 384.270429 
L 329.727134 382.521343 
L 327.073385 371.853696 
L 330.6449 367.654463 
L 327.613185 362.477737 
L 328.037998 358.582011 
L 332.470317 361.535154 
L 337.437112 360.879691 
L 343.212542 356.203824 
L 344.998033 358.388935 
L 349.905205 357.950773 
L 352.136271 352.390744 
L 359.758944 354.118456 
L 364.2972 351.792991 
L 365.114352 346.140698 
" clip-path="url(#pbda7d72352)" style="fill: #1a1a1a"/>
    <path d="M 409.602038 466.771745 
L 417.422212 465.568402 
L 413.712287 476.420219 
L 415.253964 480.691767 
L 413.091571 487.781445 
L 405.213371 482.588688 
L 399.975079 481.101074 
L 385.596926 474.091547 
L 387.038521 467.012912 
L 399.093513 468.273252 
L 409.602038 466.771745 
" clip-path="url(#pbda7d72352)" style="fill: #1a1a1a"/>
    <path d="M 347.264765 428.773462 
L 352.415753 424.499421 
L 358.596299 434.287894 
L 357.14938 452.522923 
L 352.465261 451.653011 
L 348.263448 456.255851 
L 344.362943 452.599156 
L 343.950375 435.965734 
L 341.598999 428.083802 
L 347.264765 428.773462 
" clip-path="url(#pbda7d72352)" style="fill: #1a1a1a"/>
    <path d="M 359.749362 234.610601 
L 353.157844 236.709505 
L 345.37174 234.89131 
L 341.190157 227.239858 
L 340.877669 213.145639 
L 342.593955 209.423754 
L 345.549012 205.287218 
L 354.624992 204.431555 
L 358.241756 200.628093 
L 366.528797 196.739136 
L 366.179578 203.829527 
L 363.129231 208.320155 
L 364.36534 212.18097 
L 369.950722 214.267762 
L 367.433255 219.468712 
L 364.36534 217.971124 
L 356.948153 227.897813 
L 359.749362 234.610601 
" clip-path="url(#pbda7d72352)" style="fill: #1a1a1a"/>
    <path d="M 384.977807 219.054774 
L 388.265048 225.967762 
L 382.08397 237.134843 
L 371.303948 229.347311 
L 369.865547 223.624485 
L 384.977807 219.054774 
" clip-path="url(#pbda7d72352)" style="fill: #1a1a1a"/>
    <path d="M 193.690712 249.990451 
L 185.904342 247.148453 
L 179.533482 247.337967 
L 181.657014 239.949768 
L 179.533482 232.562994 
L 188.169478 231.994452 
L 199.21168 240.51831 
L 193.690712 249.990451 
" clip-path="url(#pbda7d72352)" style="fill: #1a1a1a"/>
    <path d="M 225.667246 256.374039 
L 225.685284 256.375508 
L 227.200343 248.371388 
L 220.301482 239.879513 
L 220.143821 239.685446 
L 207.636068 237.259523 
L 205.180618 233.528376 
L 208.924347 227.367388 
L 205.536492 223.568913 
L 199.989971 230.087912 
L 199.38629 216.799129 
L 194.184197 209.767872 
L 197.925264 195.514419 
L 205.927767 184.330952 
L 214.153589 185.422439 
L 226.582289 184.2622 
L 215.571761 199.179308 
L 226.067243 197.290579 
L 237.354857 197.362537 
L 234.669168 208.595877 
L 225.407932 220.952052 
L 236.059658 221.831582 
L 236.876916 223.280527 
L 246.052339 239.547941 
L 253.103804 241.762263 
L 259.444054 257.470557 
L 262.379946 262.916593 
L 274.860816 265.542717 
L 273.608736 274.359752 
L 268.360862 278.4026 
L 272.474305 285.535026 
L 263.207745 292.755084 
L 249.42582 292.627554 
L 231.887656 296.418548 
L 227.084292 293.704436 
L 220.273181 300.163944 
L 210.743642 298.599384 
L 203.506654 303.863743 
L 198.030935 301.110802 
L 213.138936 286.630075 
L 222.360246 283.651997 
L 222.279185 283.640422 
L 206.191811 281.343274 
L 203.277212 275.856984 
L 214.041796 271.583656 
L 208.399985 264.15734 
L 210.357424 255.126924 
L 225.667246 256.374039 
" clip-path="url(#pbda7d72352)" style="fill: #1a1a1a"/>
    <path d="M 108.076577 76.436176 
L 105.69752 85.358299 
L 117.337282 94.762044 
L 103.944236 105.2758 
L 74.228374 114.72443 
L 65.350427 117.238697 
L 51.788361 115.208546 
L 23.04483 110.844379 
L 33.186568 104.75143 
L 10.764655 98.009432 
L 29.004985 95.336999 
L 28.561806 91.288807 
L 6.941341 88.08203 
L 13.901775 79.102198 
L 29.514707 77.062428 
L 45.571083 86.414876 
L 61.223675 78.908053 
L 74.185254 82.806271 
L 90.985053 75.458683 
L 108.076577 76.436176 
" clip-path="url(#pbda7d72352)" style="fill: #1a1a1a"/>
    <path d="M 399.766399 351.438186 
L 408.27543 352.506518 
L 413.473796 349.378467 
L 422.483233 349.035062 
L 424.44706 346.708171 
L 426.179848 346.860638 
L 428.181472 351.514775 
L 419.98067 355.17717 
L 418.979326 360.746462 
L 415.398762 362.157843 
L 415.437091 366.01082 
L 411.39445 365.743648 
L 407.890543 363.492991 
L 406.003906 365.819881 
L 398.824678 365.348946 
L 401.117496 364.098581 
L 398.650068 358.228632 
L 399.766399 351.438186 
" clip-path="url(#pbda7d72352)" style="fill: #f15c21"/>
    <path d="M 552.079324 40.467689 
L 550.575444 50.120795 
L 566.352072 59.30724 
L 556.845424 69.702727 
L 568.826745 85.396465 
L 561.891539 97.216109 
L 571.165552 107.476586 
L 566.954157 116.460692 
L 582.202697 125.906472 
L 578.328277 132.937729 
L 568.759344 140.901951 
L 546.702646 158.501063 
L 546.702666 158.501075 
L 546.702621 158.501111 
L 528.007136 159.597941 
L 509.891376 164.652837 
L 493.131503 167.561094 
L 487.167622 160.039666 
L 477.190379 155.514127 
L 479.483729 141.93181 
L 474.480734 129.495128 
L 479.392698 121.466429 
L 488.733254 112.807203 
L 512.300777 97.854828 
L 519.177632 94.97222 
L 518.106018 89.141456 
L 503.780035 82.626019 
L 500.303278 77.261204 
L 500.031249 56.029929 
L 483.951183 46.643283 
L 470.219831 39.895941 
L 476.393988 36.253495 
L 487.842105 43.542662 
L 501.293976 42.860126 
L 512.354012 46.192296 
L 522.176874 40.090798 
L 527.228845 29.982431 
L 543.223735 25.310126 
L 556.443502 30.79321 
L 552.079324 40.467689 
" clip-path="url(#pbda7d72352)" style="fill: #1a1a1a"/>
    <path d="M 489.921984 315.917123 
L 487.065411 319.506491 
L 485.054205 325.064383 
L 482.856146 326.474695 
L 471.823792 322.28508 
L 468.447648 323.126138 
L 466.031859 326.369964 
L 461.194424 328.09162 
L 460.080754 327.210309 
L 455.063919 329.350535 
L 450.970704 329.758774 
L 450.141308 332.52739 
L 441.4944 334.21663 
L 437.696638 332.713341 
L 432.455152 329.183464 
L 431.428255 324.406071 
L 432.255522 322.655559 
L 433.715217 319.622622 
L 438.279025 319.856308 
L 441.796773 318.429965 
L 442.07519 317.147539 
L 444.047535 316.49279 
L 444.722551 313.355833 
L 447.086703 312.756299 
L 448.68321 310.274448 
L 451.754851 310.257706 
L 452.336174 311.090214 
L 456.571525 309.21894 
L 461.766697 314.105696 
L 467.853017 311.150773 
L 472.716537 312.566429 
L 480.132127 310.617854 
L 489.921984 315.917123 
" clip-path="url(#pbda7d72352)" style="fill: #1a1a1a"/>
    <path d="M 412.236622 288.054637 
L 417.119307 292.493255 
L 424.821299 293.69268 
L 424.178757 297.485811 
L 429.774786 300.337784 
L 431.312736 296.777627 
L 438.37751 298.319388 
L 439.354898 302.636177 
L 447.013771 303.469041 
L 451.754851 310.257706 
L 448.68321 310.274448 
L 447.086703 312.756299 
L 444.722551 313.355833 
L 444.047535 316.49279 
L 442.07519 317.147539 
L 441.796773 318.429965 
L 438.279025 319.856308 
L 433.715217 319.622622 
L 432.255522 322.655559 
L 427.506457 320.052234 
L 422.668489 320.767899 
L 414.672109 316.560473 
L 411.046295 317.589976 
L 405.251168 323.230157 
L 397.597619 318.792607 
L 391.781198 312.865661 
L 386.524274 309.552015 
L 385.434028 303.737994 
L 383.630437 299.640287 
L 391.116829 296.638341 
L 394.941741 293.203221 
L 402.339231 290.532925 
L 404.92271 287.908582 
L 407.639276 289.493091 
L 412.236622 288.054637 
" clip-path="url(#pbda7d72352)" style="fill: #1a1a1a"/>
    <path d="M 448.735015 404.646135 
L 439.617345 399.426924 
L 435.72802 393.66705 
L 431.800898 390.614876 
L 427.065141 385.465223 
L 424.831946 381.192607 
L 419.787961 374.746279 
L 421.944498 369.023809 
L 425.640581 372.189976 
L 427.873776 369.329454 
L 432.686723 369.023809 
L 441.542311 371.312939 
L 448.665111 371.122 
L 453.324192 374.173807 
L 453.324145 374.173869 
L 457.058968 374.135679 
L 454.479256 380.200959 
L 459.446143 385.503409 
L 457.944591 391.988363 
L 455.518784 392.598572 
L 453.593736 393.857456 
L 450.243985 397.061812 
L 448.735015 404.646135 
" clip-path="url(#pbda7d72352)" style="fill: #1a1a1a"/>
    <path d="M 488.092308 409.192242 
L 493.251813 413.617324 
L 493.983258 422.73466 
L 492.019711 423.192302 
L 490.325503 425.595539 
L 484.742783 425.328367 
L 480.815661 428.342068 
L 474.077215 429.562866 
L 469.803536 426.20576 
L 468.340647 420.293064 
L 469.649687 415.601166 
L 469.649678 415.6011 
L 470.958627 415.715517 
L 471.420651 412.892644 
L 477.504122 410.756499 
L 479.811007 410.226745 
L 483.318104 409.421373 
L 488.092308 409.192242 
" clip-path="url(#pbda7d72352)" style="fill: #1a1a1a"/>
    <path d="M 451.514626 359.716319 
L 451.514763 359.716246 
L 459.407868 356.092324 
L 465.837552 356.702545 
L 471.420805 362.11937 
L 472.575997 366.506335 
L 478.851833 369.749092 
L 479.660468 375.432377 
L 485.666937 379.437821 
L 488.900943 376.348243 
L 491.442366 378.064912 
L 489.055324 380.391803 
L 490.941961 382.794927 
L 488.400537 385.922622 
L 489.324691 390.958281 
L 494.329815 396.90945 
L 490.402693 401.219827 
L 488.669905 405.606792 
L 489.786768 407.246873 
L 488.092308 409.192242 
L 483.318104 409.421373 
L 479.811007 410.226745 
L 479.467801 409.192373 
L 480.699865 407.552143 
L 481.854977 404.195303 
L 480.391849 404.271545 
L 478.389642 401.715725 
L 476.695554 401.067189 
L 475.347958 398.873758 
L 473.422755 398.015454 
L 471.959628 396.069981 
L 470.111532 396.832949 
L 468.686932 401.410483 
L 466.222701 402.402314 
L 467.069694 401.21981 
L 463.142438 398.358748 
L 459.757662 396.873345 
L 458.252504 394.963719 
L 455.518784 392.598572 
L 457.944591 391.988363 
L 459.446143 385.503409 
L 454.479256 380.200959 
L 457.058968 374.135679 
L 453.324145 374.173869 
L 453.324192 374.173807 
L 457.290193 368.986049 
L 454.017325 365.056838 
L 451.514626 359.716319 
" clip-path="url(#pbda7d72352)" style="fill: #1a1a1a"/>
    <path d="M 464.29755 405.492239 
L 461.525544 406.712885 
L 460.870757 404.118822 
L 456.404368 410.908911 
L 457.097476 415.295833 
L 454.94128 414.22777 
L 452.053553 409.726478 
L 447.60202 406.990019 
L 448.735015 404.646135 
L 450.243985 397.061812 
L 453.593736 393.857456 
L 455.518784 392.598572 
L 458.252504 394.963719 
L 459.757662 396.873345 
L 463.142438 398.358748 
L 467.069694 401.21981 
L 466.222701 402.402314 
L 464.29755 405.492239 
" clip-path="url(#pbda7d72352)" style="fill: #1a1a1a"/>
    <path d="M 469.649678 415.6011 
L 468.95642 410.603878 
L 466.492339 409.192242 
L 464.29755 405.492239 
L 466.222701 402.402314 
L 468.686932 401.410483 
L 470.111532 396.832949 
L 471.959628 396.069981 
L 473.422755 398.015454 
L 475.347958 398.873758 
L 476.695554 401.067189 
L 478.389642 401.715725 
L 480.391849 404.271545 
L 481.854977 404.195303 
L 480.699865 407.552143 
L 479.467801 409.192373 
L 479.811007 410.226745 
L 477.504122 410.756499 
L 471.420651 412.892644 
L 470.958627 415.715517 
L 469.649678 415.6011 
" clip-path="url(#pbda7d72352)" style="fill: #1a1a1a"/>
   </g>
   <g id="LineCollection_1">
    <path clip-path="url(#pbda7d72352)" style="fill: none; stroke: #f7f7f7; stroke-width: 0.5"/>
    <path d="M 670.6 392.251181 
L 670.392857 392.19511 
L 669.136519 393.823434 
L 656.001969 382.173454 
L 644.24915 376.972889 
L 635.352123 368.873349 
L 642.848656 366.669923 
L 651.396666 355.139094 
L 645.635737 349.683609 
L 660.81969 344.056064 
L 660.547008 341.042105 
L 651.299709 343.264145 
L 651.624973 337.139848 
L 656.93498 333.290271 
L 666.903857 332.279454 
L 668.524725 327.681889 
L 666.248394 320.079643 
L 670.432251 312.860674 
L 670.311218 308.812557 
L 655.126217 304.326129 
L 649.10644 304.475033 
L 642.748623 298.01873 
L 634.844338 300.202061 
L 621.760852 295.35449 
L 621.985362 292.642015 
L 618.320827 286.663561 
L 610.106717 285.995987 
L 609.253365 281.716246 
L 611.826197 278.924832 
L 605.243197 271.118776 
L 594.561127 272.450718 
L 591.432525 271.758208 
L 588.83017 274.893974 
L 584.982854 274.336569 
L 582.449174 265.507806 
L 580.03019 260.931326 
L 582.012611 259.643157 
L 590.324711 260.121617 
L 594.333283 257.106491 
L 591.365982 253.430559 
L 584.419389 251.00428 
L 585.039041 248.514236 
L 580.84681 245.999257 
L 574.388379 236.972759 
L 576.596021 233.253367 
L 575.587224 226.78139 
L 565.516288 223.493392 
L 560.110839 225.139172 
L 558.647418 221.71652 
L 547.801917 218.258957 
L 544.490721 210.121964 
L 543.612348 203.43625 
L 538.648747 200.261533 
L 543.062967 195.885966 
L 540.008191 183.027306 
L 547.338243 175.082523 
L 545.787116 172.67604 
L 557.495568 165.056331 
L 546.702646 158.501063 
L 568.759344 140.901951 
L 578.328277 132.937729 
L 582.202697 125.906472 
L 566.954157 116.460692 
L 571.165552 107.476586 
L 561.891539 97.216109 
L 568.826745 85.396465 
L 556.845424 69.702727 
L 566.352072 59.30724 
L 550.575444 50.120795 
L 552.079324 40.467689 
L 560.399057 39.19732 
L 577.927433 33.666145 
L 588.554912 28.870502 
L 605.477765 37.20511 
L 633.688425 40.486397 
L 670.6 55.273818 
M 670.6 78.521606 
L 669.763073 79.051724 
L 652.941897 82.728007 
L 606.953357 72.248844 
L 599.389247 74.000886 
L 616.184154 84.098151 
L 616.841436 90.494415 
L 617.514494 104.582483 
L 630.776489 108.786391 
L 638.826523 112.365751 
L 640.157894 105.680749 
L 633.95234 99.755819 
L 640.508867 94.533885 
L 665.41191 103.115278 
L 670.6 101.106253 
M 670.6 94.676912 
L 667.154415 89.65883 
L 670.6 87.720867 
L 670.6 87.720867 
" clip-path="url(#pbda7d72352)" style="fill: none; stroke: #f7f7f7; stroke-width: 0.5"/>
    <path clip-path="url(#pbda7d72352)" style="fill: none; stroke: #f7f7f7; stroke-width: 0.5"/>
    <path clip-path="url(#pbda7d72352)" style="fill: none; stroke: #f7f7f7; stroke-width: 0.5"/>
    <path clip-path="url(#pbda7d72352)" style="fill: none; stroke: #f7f7f7; stroke-width: 0.5"/>
    <path clip-path="url(#pbda7d72352)" style="fill: none; stroke: #f7f7f7; stroke-width: 0.5"/>
    <path clip-path="url(#pbda7d72352)" style="fill: none; stroke: #f7f7f7; stroke-width: 0.5"/>
    <path clip-path="url(#pbda7d72352)" style="fill: none; stroke: #f7f7f7; stroke-width: 0.5"/>
    <path d="M 491.703749 243.648855 
L 472.760722 243.855824 
L 460.073302 242.290196 
L 462.420418 236.222896 
L 476.636206 231.751504 
L 487.424746 234.166739 
L 491.97844 236.355057 
L 490.879144 240.130376 
L 491.703749 243.648855 
" clip-path="url(#pbda7d72352)" style="fill: none; stroke: #f7f7f7; stroke-width: 0.5"/>
    <path clip-path="url(#pbda7d72352)" style="fill: none; stroke: #f7f7f7; stroke-width: 0.5"/>
    <path clip-path="url(#pbda7d72352)" style="fill: none; stroke: #f7f7f7; stroke-width: 0.5"/>
    <path clip-path="url(#pbda7d72352)" style="fill: none; stroke: #f7f7f7; stroke-width: 0.5"/>
    <path clip-path="url(#pbda7d72352)" style="fill: none; stroke: #f7f7f7; stroke-width: 0.5"/>
    <path d="M 601.980579 358.847123 
L 604.694764 355.432716 
L 612.018538 358.388776 
L 615.331675 358.933313 
L 616.668554 361.656 
L 618.222715 362.075912 
L 618.306454 363.268566 
L 623.346181 366.594324 
L 633.853641 365.767159 
L 631.841903 370.685976 
L 620.564669 373.074138 
L 606.580452 381.050115 
L 600.851869 378.245877 
L 603.123392 371.767488 
L 591.866388 367.732121 
L 593.685949 365.088898 
L 603.548205 360.506363 
L 601.980579 358.847123 
" clip-path="url(#pbda7d72352)" style="fill: none; stroke: #f7f7f7; stroke-width: 0.5"/>
    <path clip-path="url(#pbda7d72352)" style="fill: none; stroke: #f7f7f7; stroke-width: 0.5"/>
    <path d="M 577.927044 33.666268 
L 560.399057 39.19732 
L 552.079324 40.467689 
L 556.443502 30.79321 
L 543.223735 25.310126 
L 527.228845 29.982431 
L 522.176874 40.090798 
L 512.354012 46.192296 
L 501.293976 42.860126 
L 487.842105 43.542662 
L 476.393988 36.253495 
L 470.219831 39.895941 
L 463.82954 40.462702 
L 462.318208 49.533729 
L 442.902989 47.325106 
L 440.176309 55.002207 
L 430.28371 54.955541 
L 423.48298 64.764675 
L 413.178344 80.048699 
L 397.182921 99.44468 
L 400.934901 104.15439 
L 397.350078 109.618237 
L 387.131149 109.382413 
L 380.44168 122.313186 
L 381.075173 140.621598 
L 387.658705 147.608683 
L 384.251153 163.817123 
L 375.679306 173.268603 
L 371.137323 181.213232 
L 364.22693 172.752782 
L 343.885961 188.697612 
L 330.151414 191.929326 
L 315.905283 184.908044 
L 312.221443 170.086049 
L 308.964546 138.269059 
L 318.450433 129.397521 
L 345.651755 117.822914 
L 365.990063 103.594397 
L 384.848446 84.379737 
L 409.600973 57.758354 
L 426.853799 47.382815 
L 455.163467 30.090725 
L 477.76904 24.055842 
L 494.718428 24.787894 
L 510.405623 13.366465 
L 529.190543 13.97633 
L 547.686931 11.229801 
L 579.908815 21.317506 
L 566.640604 25.005906 
L 577.927044 33.666268 
" clip-path="url(#pbda7d72352)" style="fill: none; stroke: #f7f7f7; stroke-width: 0.5"/>
    <path clip-path="url(#pbda7d72352)" style="fill: none; stroke: #f7f7f7; stroke-width: 0.5"/>
    <path clip-path="url(#pbda7d72352)" style="fill: none; stroke: #f7f7f7; stroke-width: 0.5"/>
    <path clip-path="url(#pbda7d72352)" style="fill: none; stroke: #f7f7f7; stroke-width: 0.5"/>
    <path d="M 321.267079 310.704774 
L 326.12847 314.314803 
L 340.973492 316.854006 
L 335.765011 326.294799 
L 334.457567 336.117114 
L 331.629209 338.472147 
L 326.935508 337.203257 
L 327.266627 340.706418 
L 319.732856 348.453696 
L 319.580605 354.696261 
L 324.499489 352.536085 
L 328.037998 358.582011 
L 327.613185 362.477737 
L 330.6449 367.654463 
L 327.073385 371.853696 
L 329.727134 382.521343 
L 335.310919 384.270429 
L 334.132303 390.254728 
L 324.799732 398.043685 
L 304.482186 394.310756 
L 289.477461 398.78393 
L 288.298845 407.086213 
L 276.357242 408.873416 
L 264.765924 402.636907 
L 261.020865 405.617479 
L 242.057609 399.351759 
L 237.951618 393.991575 
L 243.278812 385.722064 
L 245.24051 358.25428 
L 234.610078 343.785665 
L 227.012159 336.80998 
L 211.268536 331.507148 
L 210.230193 321.453641 
L 223.586507 318.454545 
L 240.885913 322.001522 
L 237.620498 306.395822 
L 247.345409 312.309943 
L 271.32976 301.558939 
L 274.422694 290.261478 
L 283.432131 287.477901 
L 284.924299 292.326184 
L 289.712758 292.553458 
L 294.502282 298.087126 
L 301.691092 304.587601 
L 306.977828 303.513926 
L 315.989926 309.799238 
L 318.294455 310.996169 
L 321.267079 310.704774 
" clip-path="url(#pbda7d72352)" style="fill: none; stroke: #f7f7f7; stroke-width: 0.5"/>
    <path d="M 347.635811 404.947768 
L 354.269916 399.683053 
L 356.021337 411.505239 
L 352.619109 422.155431 
L 347.941911 419.348343 
L 345.556997 410.07106 
L 347.635811 404.947768 
" clip-path="url(#pbda7d72352)" style="fill: none; stroke: #f7f7f7; stroke-width: 0.5"/>
    <path d="M 371.137323 181.213232 
L 375.679306 173.268603 
L 384.251153 163.817123 
L 387.658705 147.608683 
L 381.075173 140.621598 
L 380.44168 122.313186 
L 387.131149 109.382413 
L 397.350078 109.618237 
L 400.934901 104.15439 
L 397.182921 99.44468 
L 413.178344 80.048699 
L 423.48298 64.764675 
L 430.28371 54.955541 
L 440.176309 55.002207 
L 442.902989 47.325106 
L 462.318208 49.533729 
L 463.82954 40.462702 
L 470.219831 39.895941 
L 483.951183 46.643283 
L 500.031249 56.029929 
L 500.303278 77.261204 
L 503.780035 82.626019 
L 486.059276 86.530294 
L 476.070322 96.149914 
L 477.678541 104.593265 
L 461.291311 115.678413 
L 441.398045 127.537291 
L 433.896215 146.952508 
L 441.228759 156.666529 
L 451.0809 164.313707 
L 441.618969 179.867397 
L 430.904958 183.092698 
L 426.975174 206.236926 
L 421.124684 219.152737 
L 408.627844 217.821151 
L 402.797582 228.755614 
L 390.870353 229.390415 
L 387.59642 216.357048 
L 378.972403 200.712519 
L 371.137323 181.213232 
" clip-path="url(#pbda7d72352)" style="fill: none; stroke: #f7f7f7; stroke-width: 0.5"/>
    <path d="M 547.801917 218.258957 
L 558.647418 221.71652 
L 560.110839 225.139172 
L 565.516288 223.493392 
L 575.587224 226.78139 
L 576.596021 233.253367 
L 574.388379 236.972759 
L 580.84681 245.999257 
L 585.039041 248.514236 
L 584.419389 251.00428 
L 591.365982 253.430559 
L 594.333283 257.106491 
L 590.324711 260.121617 
L 582.012611 259.643157 
L 580.03019 260.931326 
L 582.449174 265.507806 
L 584.982854 274.336569 
L 584.983085 274.336602 
L 576.1398 275.154499 
L 572.965949 278.181381 
L 572.303177 285.120375 
L 568.205704 283.788076 
L 558.909332 284.448526 
L 556.20927 281.225006 
L 552.3439 283.628486 
L 548.470545 281.636094 
L 540.35758 281.359304 
L 528.859955 278.050645 
L 518.453641 276.970201 
L 510.473231 277.276202 
L 504.827693 281.012693 
L 499.903486 281.550243 
L 499.70705 275.41241 
L 496.52894 269.024503 
L 502.706824 266.210291 
L 502.765914 260.714383 
L 499.908277 255.469973 
L 499.461106 249.370968 
L 509.418119 249.464657 
L 520.602192 244.270831 
L 522.992962 236.487574 
L 531.438643 232.072822 
L 530.470836 225.897229 
L 536.735493 223.578175 
L 547.801917 218.258957 
" clip-path="url(#pbda7d72352)" style="fill: none; stroke: #f7f7f7; stroke-width: 0.5"/>
    <path d="M 584.983085 274.336602 
L 588.83017 274.893974 
L 591.432525 271.758208 
L 594.561127 272.450718 
L 605.243197 271.118776 
L 611.826197 278.924832 
L 609.253365 281.716246 
L 610.106717 285.995987 
L 618.320827 286.663561 
L 621.985362 292.642015 
L 621.760852 295.35449 
L 634.844338 300.202061 
L 642.748623 298.01873 
L 649.10644 304.475033 
L 655.126217 304.326129 
L 670.311218 308.812557 
L 670.432251 312.860674 
L 666.248394 320.079643 
L 668.524725 327.681889 
L 666.903857 332.279454 
L 656.93498 333.290271 
L 651.624973 337.139848 
L 651.299709 343.264145 
L 643.074951 344.366675 
L 636.221519 348.827024 
L 626.577525 349.554088 
L 617.70437 354.693411 
L 618.222715 362.075912 
L 616.668554 361.656 
L 615.331675 358.933313 
L 612.018538 358.388776 
L 604.694764 355.432716 
L 601.980579 358.847123 
L 600.564934 357.348745 
L 584.551943 353.864109 
L 583.842857 348.723005 
L 574.29788 350.420795 
L 570.474566 358.013113 
L 562.497882 368.203056 
L 557.825474 365.83698 
L 552.984313 368.055221 
L 548.387499 365.514949 
L 550.98056 364.01736 
L 552.780424 359.287346 
L 555.600265 354.891474 
L 554.871482 352.422804 
L 557.02589 351.322768 
L 558.041075 353.231089 
L 564.111957 353.634697 
L 566.838637 352.615168 
L 564.91793 351.217324 
L 565.645648 349.162592 
L 562.048581 345.657651 
L 560.559607 339.893858 
L 556.807095 337.63857 
L 557.547057 332.96662 
L 552.892749 329.257203 
L 548.655269 328.741383 
L 541.06294 324.445968 
L 534.215364 325.809615 
L 531.758583 327.842972 
L 527.412504 327.840835 
L 524.821573 331.063287 
L 517.216999 332.388104 
L 513.699784 334.504819 
L 508.917181 331.135957 
L 502.312887 331.08466 
L 495.9391 329.557861 
L 491.491875 332.510291 
L 490.773739 328.814766 
L 485.054205 325.064383 
L 487.065411 319.506491 
L 489.921984 315.917123 
L 492.170617 316.721489 
L 489.513142 310.525946 
L 498.867539 299.05892 
L 503.979665 297.454463 
L 505.084284 293.58688 
L 499.903486 281.550243 
L 504.827693 281.012693 
L 510.473231 277.276202 
L 518.453641 276.970201 
L 528.859955 278.050645 
L 540.35758 281.359304 
L 548.470545 281.636094 
L 552.3439 283.628486 
L 556.20927 281.225006 
L 558.909332 284.448526 
L 568.205704 283.788076 
L 572.303177 285.120375 
L 572.965949 278.181381 
L 576.1398 275.154499 
L 584.983085 274.336602 
" clip-path="url(#pbda7d72352)" style="fill: none; stroke: #f7f7f7; stroke-width: 0.5"/>
    <path d="M 499.461106 249.370968 
L 499.908277 255.469973 
L 502.765914 260.714383 
L 502.706824 266.210291 
L 496.52894 269.024503 
L 499.70705 275.41241 
L 499.903486 281.550243 
L 505.084284 293.58688 
L 503.979665 297.454463 
L 498.867539 299.05892 
L 489.513142 310.525946 
L 492.170617 316.721489 
L 489.921984 315.917123 
L 480.132127 310.617854 
L 472.716537 312.566429 
L 467.853017 311.150773 
L 461.766697 314.105696 
L 456.571525 309.21894 
L 452.336174 311.090214 
L 451.754851 310.257706 
L 447.013771 303.469041 
L 439.354898 302.636177 
L 438.37751 298.319388 
L 431.312736 296.777627 
L 429.774786 300.337784 
L 424.178757 297.485811 
L 424.821299 293.69268 
L 417.119307 292.493255 
L 412.236622 288.054637 
L 408.014048 279.251494 
L 408.816827 274.498325 
L 406.26795 267.123663 
L 402.527682 262.209834 
L 405.399693 258.529984 
L 402.992953 251.514401 
L 410.03111 247.465497 
L 426.107449 241.089702 
L 439.08074 236.424521 
L 449.361953 238.75355 
L 450.138646 242.115999 
L 460.073302 242.290196 
L 472.760722 243.855824 
L 491.703749 243.648855 
L 496.98729 245.123645 
L 499.461106 249.370968 
" clip-path="url(#pbda7d72352)" style="fill: none; stroke: #f7f7f7; stroke-width: 0.5"/>
    <path d="M 432.455152 329.183464 
L 431.673135 334.817232 
L 425.87162 334.844306 
L 427.866855 337.832358 
L 424.44706 346.708171 
L 422.483233 349.035062 
L 413.473796 349.378467 
L 408.27543 352.506518 
L 399.766399 351.438186 
L 385.0353 347.877673 
L 382.733965 343.082112 
L 372.553366 345.478467 
L 371.355586 348.101029 
L 365.114352 346.140698 
L 359.85796 345.765945 
L 355.196732 343.255596 
L 356.772479 339.880678 
L 356.373751 337.434094 
L 359.483188 336.6739 
L 364.695928 340.502654 
L 366.163075 336.864127 
L 375.248105 337.451905 
L 382.613122 334.979673 
L 387.551703 335.402874 
L 390.764416 338.225636 
L 391.724769 335.882715 
L 390.264542 326.899677 
L 393.965417 325.149165 
L 397.597619 318.792607 
L 405.251168 323.230157 
L 411.046295 317.589976 
L 414.672109 316.560473 
L 422.668489 320.767899 
L 427.506457 320.052234 
L 432.255522 322.655559 
L 431.428255 324.406071 
L 432.455152 329.183464 
" clip-path="url(#pbda7d72352)" style="fill: none; stroke: #f7f7f7; stroke-width: 0.5"/>
    <path d="M 485.054205 325.064383 
L 490.773739 328.814766 
L 491.491875 332.510291 
L 485.200068 335.402161 
L 480.324837 344.752472 
L 474.096912 354.10207 
L 465.837552 356.702545 
L 459.407868 356.092324 
L 451.514763 359.716246 
L 451.514626 359.716319 
L 447.664299 361.775965 
L 439.155268 359.124905 
L 431.45434 353.212209 
L 428.181472 351.514775 
L 426.179848 346.860638 
L 424.44706 346.708171 
L 427.866855 337.832358 
L 425.87162 334.844306 
L 431.673135 334.817232 
L 432.455152 329.183464 
L 437.696638 332.713341 
L 441.4944 334.21663 
L 450.141308 332.52739 
L 450.970704 329.758774 
L 455.063919 329.350535 
L 460.080754 327.210309 
L 461.194424 328.09162 
L 466.031859 326.369964 
L 468.447648 323.126138 
L 471.823792 322.28508 
L 482.856146 326.474695 
L 485.054205 325.064383 
" clip-path="url(#pbda7d72352)" style="fill: none; stroke: #f7f7f7; stroke-width: 0.5"/>
    <path d="M 531.758583 327.842972 
L 534.215364 325.809615 
L 541.06294 324.445968 
L 548.655269 328.741383 
L 552.892749 329.257203 
L 557.547057 332.96662 
L 556.807095 337.63857 
L 560.559607 339.893858 
L 562.048581 345.657651 
L 565.645648 349.162592 
L 564.91793 351.217324 
L 566.838637 352.615168 
L 564.111957 353.634697 
L 558.041075 353.231089 
L 557.02589 351.322768 
L 554.871482 352.422804 
L 555.600265 354.891474 
L 552.780424 359.287346 
L 550.98056 364.01736 
L 548.387499 365.514949 
L 546.542385 359.223937 
L 547.629969 353.337245 
L 547.300447 347.285976 
L 541.35786 339.087711 
L 538.089251 333.274403 
L 534.898897 329.18667 
L 531.758583 327.842972 
" clip-path="url(#pbda7d72352)" style="fill: none; stroke: #f7f7f7; stroke-width: 0.5"/>
    <path d="M 548.387499 365.514949 
L 552.984313 368.055221 
L 557.825474 365.83698 
L 562.497882 368.203056 
L 562.737438 371.758939 
L 557.741896 374.725618 
L 554.612762 373.434286 
L 551.730636 390.066995 
L 545.673595 388.619278 
L 538.177088 383.607486 
L 526.049697 386.812839 
L 520.941297 390.32918 
L 505.812535 389.603897 
L 497.897071 387.453696 
L 493.905535 388.46325 
L 490.941961 382.794927 
L 489.055324 380.391803 
L 491.442366 378.064912 
L 488.900943 376.348243 
L 485.666937 379.437821 
L 479.660468 375.432377 
L 478.851833 369.749092 
L 472.575997 366.506335 
L 471.420805 362.11937 
L 465.837552 356.702545 
L 474.096912 354.10207 
L 480.324837 344.752472 
L 485.200068 335.402161 
L 491.491875 332.510291 
L 495.9391 329.557861 
L 502.312887 331.08466 
L 508.917181 331.135957 
L 513.699784 334.504819 
L 517.216999 332.388104 
L 524.821573 331.063287 
L 527.412504 327.840835 
L 531.758583 327.842972 
L 534.898897 329.18667 
L 538.089251 333.274403 
L 541.35786 339.087711 
L 547.300447 347.285976 
L 547.629969 353.337245 
L 546.542385 359.223937 
L 548.387499 365.514949 
" clip-path="url(#pbda7d72352)" style="fill: none; stroke: #f7f7f7; stroke-width: 0.5"/>
    <path d="M 530.470836 225.897229 
L 531.438643 232.072822 
L 522.992962 236.487574 
L 520.602192 244.270831 
L 509.418119 249.464657 
L 499.461106 249.370968 
L 496.98729 245.123645 
L 491.703749 243.648855 
L 490.879144 240.130376 
L 491.97844 236.355057 
L 487.424746 234.166739 
L 476.636206 231.751504 
L 474.445599 220.162291 
L 486.244533 215.933491 
L 503.521314 216.817653 
L 513.641758 215.454719 
L 515.086548 218.322366 
L 520.568122 219.207952 
L 530.470836 225.897229 
" clip-path="url(#pbda7d72352)" style="fill: none; stroke: #f7f7f7; stroke-width: 0.5"/>
    <path d="M 538.648747 200.261533 
L 543.612348 203.43625 
L 544.490721 210.121964 
L 547.801917 218.258957 
L 536.735493 223.578175 
L 530.470836 225.897229 
L 520.568122 219.207952 
L 515.086548 218.322366 
L 513.641758 215.454719 
L 503.521314 216.817653 
L 486.244533 215.933491 
L 474.445599 220.162291 
L 474.802272 209.783546 
L 479.864889 201.125389 
L 489.573829 196.417105 
L 497.754402 206.717835 
L 506.019085 206.449594 
L 507.998351 195.864949 
L 516.77249 193.428339 
L 521.28679 195.119004 
L 530.153558 200.235884 
L 538.648747 200.261533 
" clip-path="url(#pbda7d72352)" style="fill: none; stroke: #f7f7f7; stroke-width: 0.5"/>
    <path d="M 545.787116 172.67604 
L 545.787045 172.676086 
L 547.338243 175.082523 
L 540.008191 183.027306 
L 543.062967 195.885966 
L 538.648747 200.261533 
L 530.153558 200.235884 
L 521.28679 195.119004 
L 516.77249 193.428339 
L 507.998351 195.864949 
L 509.194001 187.730806 
L 505.405822 189.468493 
L 498.868071 184.568913 
L 497.974261 176.648508 
L 510.999722 172.807285 
L 523.9794 170.80492 
L 535.15602 173.083719 
L 545.786985 172.675837 
L 545.787116 172.67604 
" clip-path="url(#pbda7d72352)" style="fill: none; stroke: #f7f7f7; stroke-width: 0.5"/>
    <path d="M 402.992953 251.514401 
L 405.399693 258.529984 
L 402.527682 262.209834 
L 406.26795 267.123663 
L 408.816827 274.498325 
L 408.014048 279.251494 
L 412.236622 288.054637 
L 407.639276 289.493091 
L 404.92271 287.908582 
L 402.339231 290.532925 
L 394.941741 293.203221 
L 391.116829 296.638341 
L 383.630437 299.640287 
L 385.434028 303.737994 
L 386.524274 309.552015 
L 391.781198 312.865661 
L 397.597619 318.792607 
L 393.965417 325.149165 
L 390.264542 326.899677 
L 391.724769 335.882715 
L 390.764416 338.225636 
L 387.551703 335.402874 
L 382.613122 334.979673 
L 375.248105 337.451905 
L 366.163075 336.864127 
L 364.695928 340.502654 
L 359.483188 336.6739 
L 356.373751 337.434094 
L 345.334476 333.218475 
L 343.219462 336.213652 
L 334.457567 336.117114 
L 335.765011 326.294799 
L 340.973492 316.854006 
L 326.12847 314.314803 
L 321.267079 310.704774 
L 321.848402 304.660272 
L 319.791414 301.546827 
L 320.961512 292.231427 
L 319.230853 277.784185 
L 325.419384 277.778486 
L 328.030545 272.588935 
L 330.597521 259.965588 
L 328.672023 255.30397 
L 330.683761 252.384313 
L 339.293938 251.634806 
L 341.20453 254.674869 
L 348.199566 247.878011 
L 345.844464 242.709834 
L 345.37174 234.89131 
L 353.157844 236.709505 
L 359.749362 234.610601 
L 359.931424 239.938725 
L 370.341465 243.151558 
L 370.231802 248.044726 
L 380.706256 245.45565 
L 386.497657 241.679618 
L 398.128369 247.123517 
L 402.992953 251.514401 
" clip-path="url(#pbda7d72352)" style="fill: none; stroke: #f7f7f7; stroke-width: 0.5"/>
    <path d="M 490.941961 382.794927 
L 493.905535 388.46325 
L 497.897071 387.453696 
L 505.812535 389.603897 
L 520.941297 390.32918 
L 526.049697 386.812839 
L 538.177088 383.607486 
L 545.673595 388.619278 
L 551.730636 390.066995 
L 546.384278 395.778778 
L 542.622183 405.640278 
L 545.947754 413.50618 
L 537.078324 411.656993 
L 526.584173 415.994087 
L 526.471848 422.860053 
L 517.108401 424.161715 
L 509.850385 419.344425 
L 501.603269 423.133281 
L 493.983258 422.73466 
L 493.251813 413.617324 
L 488.092308 409.192242 
L 489.786768 407.246873 
L 488.669905 405.606792 
L 490.402693 401.219827 
L 494.329815 396.90945 
L 489.324691 390.958281 
L 488.400537 385.922622 
L 490.941961 382.794927 
" clip-path="url(#pbda7d72352)" style="fill: none; stroke: #f7f7f7; stroke-width: 0.5"/>
    <path d="M 528.365937 505.980139 
L 527.078191 510.047211 
L 512.243816 511.219205 
L 512.347091 508.944324 
L 499.778917 506.255861 
L 501.684718 500.396242 
L 507.316414 505.042187 
L 515.334621 504.256701 
L 523.000947 505.235263 
L 522.751809 507.634468 
L 528.365937 505.980139 
" clip-path="url(#pbda7d72352)" style="fill: none; stroke: #f7f7f7; stroke-width: 0.5"/>
    <path d="M 493.983258 422.73466 
L 501.603269 423.133281 
L 509.850385 419.344425 
L 517.108401 424.161715 
L 526.471848 422.860053 
L 526.584173 415.994087 
L 531.602606 419.644726 
L 528.413316 428.273316 
L 525.965054 429.819352 
L 519.688685 429.427499 
L 514.313048 428.124412 
L 501.837502 431.70808 
L 508.978401 439.458208 
L 503.7449 441.705303 
L 498.007267 441.719196 
L 492.557633 434.618831 
L 490.62415 437.644288 
L 492.926017 445.878531 
L 498.079666 452.348727 
L 494.196729 455.369553 
L 499.93383 461.723973 
L 505.033179 465.722293 
L 505.18756 473.511606 
L 495.658553 469.858117 
L 498.697188 476.88973 
L 492.155711 478.33709 
L 496.062604 490.504107 
L 489.220351 490.676522 
L 480.773073 484.679399 
L 476.909832 473.649823 
L 475.107306 464.476915 
L 471.089685 458.139593 
L 465.812 450.277609 
L 465.114625 446.351604 
L 469.904681 439.664821 
L 470.522736 435.184167 
L 473.870665 433.185007 
L 474.077215 429.562866 
L 480.815661 428.342068 
L 484.742783 425.328367 
L 490.325503 425.595539 
L 492.019711 423.192302 
L 493.983258 422.73466 
" clip-path="url(#pbda7d72352)" style="fill: none; stroke: #f7f7f7; stroke-width: 0.5"/>
    <path d="M 474.077215 429.562866 
L 473.870665 433.185007 
L 470.522736 435.184167 
L 469.904681 439.664821 
L 465.114625 446.351604 
L 463.363205 445.386578 
L 463.157186 442.353285 
L 457.450961 437.724083 
L 456.55449 431.155212 
L 457.424876 421.747905 
L 458.830804 417.468164 
L 457.097483 415.295877 
L 457.097476 415.295833 
L 456.404368 410.908911 
L 460.870757 404.118822 
L 461.525544 406.712885 
L 464.29755 405.492239 
L 466.492339 409.192242 
L 468.95642 410.603878 
L 469.649678 415.6011 
L 469.649687 415.601166 
L 468.340647 420.293064 
L 469.803536 426.20576 
L 474.077215 429.562866 
" clip-path="url(#pbda7d72352)" style="fill: none; stroke: #f7f7f7; stroke-width: 0.5"/>
    <path d="M 428.181472 351.514775 
L 431.45434 353.212209 
L 439.155268 359.124905 
L 447.664299 361.775965 
L 451.514626 359.716319 
L 454.017325 365.056838 
L 457.290193 368.986049 
L 453.324192 374.173807 
L 448.665111 371.122 
L 441.542311 371.312939 
L 432.686723 369.023809 
L 427.873776 369.329454 
L 425.640581 372.189976 
L 421.944498 369.023809 
L 419.787961 374.746279 
L 424.831946 381.192607 
L 427.065141 385.465223 
L 431.800898 390.614876 
L 435.72802 393.66705 
L 439.617345 399.426924 
L 448.735015 404.646135 
L 447.60202 406.990019 
L 447.602014 406.990031 
L 437.918094 401.888825 
L 431.943567 396.925481 
L 422.521562 392.827773 
L 413.858683 382.680934 
L 415.937497 381.650718 
L 411.240601 375.852371 
L 411.047892 371.198234 
L 404.425498 369.023809 
L 401.26815 374.974978 
L 398.22632 370.358957 
L 398.457359 365.571946 
L 398.824678 365.348946 
L 406.003906 365.819881 
L 407.890543 363.492991 
L 411.39445 365.743648 
L 415.437091 366.01082 
L 415.398762 362.157843 
L 418.979326 360.746462 
L 419.98067 355.17717 
L 428.181472 351.514775 
" clip-path="url(#pbda7d72352)" style="fill: none; stroke: #f7f7f7; stroke-width: 0.5"/>
    <path d="M 356.373751 337.434094 
L 356.772479 339.880678 
L 355.196732 343.255596 
L 359.85796 345.765945 
L 365.114352 346.140698 
L 364.2972 351.792991 
L 359.758944 354.118456 
L 352.136271 352.390744 
L 349.905205 357.950773 
L 344.998033 358.388935 
L 343.212542 356.203824 
L 337.437112 360.879691 
L 332.470317 361.535154 
L 328.037998 358.582011 
L 324.499489 352.536085 
L 319.580605 354.696261 
L 319.732856 348.453696 
L 327.266627 340.706418 
L 326.935508 337.203257 
L 331.629209 338.472147 
L 334.457567 336.117114 
L 343.219462 336.213652 
L 345.334476 333.218475 
L 356.373751 337.434094 
" clip-path="url(#pbda7d72352)" style="fill: none; stroke: #f7f7f7; stroke-width: 0.5"/>
    <path d="M 319.791414 301.546827 
L 321.848402 304.660272 
L 321.267079 310.704774 
L 318.294455 310.996169 
L 315.989926 309.799238 
L 317.106257 302.066922 
L 319.791414 301.546827 
" clip-path="url(#pbda7d72352)" style="fill: none; stroke: #f7f7f7; stroke-width: 0.5"/>
    <path d="M 320.961512 292.231427 
L 319.791414 301.546827 
L 317.106257 302.066922 
L 315.989926 309.799238 
L 306.977828 303.513926 
L 301.691092 304.587601 
L 294.502282 298.087126 
L 289.712758 292.553458 
L 284.924299 292.326184 
L 283.432131 287.477901 
L 291.687764 284.758089 
L 291.68818 284.758149 
L 291.687764 284.758445 
L 299.229521 285.84067 
L 308.778224 282.976229 
L 315.29894 289.011113 
L 320.961512 292.231427 
" clip-path="url(#pbda7d72352)" style="fill: none; stroke: #f7f7f7; stroke-width: 0.5"/>
    <path d="M 328.672023 255.30397 
L 330.597521 259.965588 
L 328.030545 272.588935 
L 325.419384 277.778486 
L 319.230853 277.784185 
L 320.961512 292.231427 
L 315.29894 289.011113 
L 308.778224 282.976229 
L 299.229521 285.84067 
L 291.687764 284.758445 
L 291.68818 284.758149 
L 296.996326 280.969945 
L 306.017474 260.685884 
L 320.111887 254.914611 
L 328.672023 255.30397 
" clip-path="url(#pbda7d72352)" style="fill: none; stroke: #f7f7f7; stroke-width: 0.5"/>
    <path d="M 164.46594 415.254198 
L 168.204079 411.750681 
L 172.408021 409.740835 
L 174.990435 416.490671 
L 181.075159 416.474284 
L 182.838823 414.733391 
L 188.841565 415.215369 
L 191.721029 422.130495 
L 186.961317 425.863067 
L 186.828496 436.619772 
L 185.155596 438.637455 
L 184.741697 445.153604 
L 180.291012 446.288551 
L 184.417764 454.553787 
L 181.573967 463.611989 
L 185.126051 467.710766 
L 183.712404 471.459012 
L 179.89468 476.62897 
L 180.753621 481.19405 
L 176.61356 484.772019 
L 171.182559 482.833418 
L 165.866544 484.350956 
L 167.440161 473.56219 
L 166.472887 465.084642 
L 161.863296 463.812903 
L 159.400128 458.588442 
L 160.219942 449.563013 
L 164.326997 444.557989 
L 165.057909 438.985135 
L 167.207526 430.694607 
L 166.979149 424.853157 
L 164.919499 419.901924 
L 164.46594 415.254198 
" clip-path="url(#pbda7d72352)" style="fill: none; stroke: #f7f7f7; stroke-width: 0.5"/>
    <path d="M 180.753621 481.19405 
L 179.89468 476.62897 
L 183.712404 471.459012 
L 185.126051 467.710766 
L 181.573967 463.611989 
L 184.417764 454.553787 
L 180.291012 446.288551 
L 184.741697 445.153604 
L 185.155596 438.637455 
L 186.828496 436.619772 
L 186.961317 425.863067 
L 191.721029 422.130495 
L 188.841565 415.215369 
L 182.838823 414.733391 
L 181.075159 416.474284 
L 174.990435 416.490671 
L 172.408021 409.740835 
L 168.204079 411.750681 
L 164.46594 415.254198 
L 164.984978 405.43509 
L 160.777309 399.453641 
L 175.350834 389.50344 
L 187.956805 391.99099 
L 201.787706 391.903714 
L 212.748992 394.258391 
L 221.302473 393.535245 
L 237.951618 393.991575 
L 242.057609 399.351759 
L 261.020865 405.617479 
L 264.765924 402.636907 
L 276.357242 408.873416 
L 288.298845 407.086213 
L 288.849824 415.094964 
L 279.087649 424.27749 
L 265.888111 427.191447 
L 264.969281 431.829554 
L 258.637548 439.472813 
L 254.667306 450.694753 
L 258.684927 458.57348 
L 252.72637 464.724494 
L 250.498499 473.686158 
L 242.720913 476.433756 
L 235.426697 487.034788 
L 222.350664 487.244964 
L 212.532061 486.983847 
L 206.080018 491.852435 
L 202.145443 497.061935 
L 197.105184 495.918082 
L 193.29092 491.260026 
L 190.370465 483.329289 
L 180.753621 481.19405 
" clip-path="url(#pbda7d72352)" style="fill: none; stroke: #f7f7f7; stroke-width: 0.5"/>
    <path d="M 193.690712 249.990451 
L 195.38943 259.839839 
L 187.602794 272.152198 
L 169.340639 280.29774 
L 154.759129 278.213798 
L 163.11165 263.817854 
L 157.731753 249.800225 
L 171.747379 239.00291 
L 179.533482 232.562994 
L 181.657014 239.949768 
L 179.533482 247.337967 
L 185.904342 247.148453 
L 193.690712 249.990451 
" clip-path="url(#pbda7d72352)" style="fill: none; stroke: #f7f7f7; stroke-width: 0.5"/>
    <path d="M 365.114352 346.140698 
L 371.355586 348.101029 
L 372.553366 345.478467 
L 382.733965 343.082112 
L 385.0353 347.877673 
L 399.766399 351.438186 
L 398.650068 358.228632 
L 401.117496 364.098581 
L 392.917226 362.090159 
L 384.541815 366.983327 
L 385.111426 373.827207 
L 383.850296 377.754993 
L 387.226972 384.774138 
L 396.886404 391.717762 
L 402.067202 403.11568 
L 413.530225 414.22612 
L 421.602731 414.140981 
L 424.113278 417.188168 
L 421.223168 419.934697 
L 430.449802 424.918347 
L 438.012852 429.088369 
L 446.846614 436.278504 
L 447.913437 438.85333 
L 445.988471 443.790314 
L 440.271067 437.353248 
L 431.321253 435.084423 
L 426.985821 444.002271 
L 434.431223 449.113095 
L 433.208955 456.307505 
L 428.905464 457.125051 
L 423.403128 468.949732 
L 419.108686 470.012008 
L 419.148612 465.796745 
L 421.250317 458.402134 
L 423.489368 455.457185 
L 419.466423 447.467315 
L 416.322384 440.514785 
L 412.046042 438.797046 
L 409.004745 432.846589 
L 402.385013 430.340159 
L 397.927674 424.798654 
L 390.305533 423.90523 
L 382.255918 417.681189 
L 372.832315 408.707413 
L 365.827697 400.765634 
L 362.614452 387.136652 
L 357.489017 385.533619 
L 349.108282 380.983144 
L 344.365605 382.845868 
L 338.413436 389.244105 
L 334.132303 390.254728 
L 335.310919 384.270429 
L 329.727134 382.521343 
L 327.073385 371.853696 
L 330.6449 367.654463 
L 327.613185 362.477737 
L 328.037998 358.582011 
L 332.470317 361.535154 
L 337.437112 360.879691 
L 343.212542 356.203824 
L 344.998033 358.388935 
L 349.905205 357.950773 
L 352.136271 352.390744 
L 359.758944 354.118456 
L 364.2972 351.792991 
L 365.114352 346.140698 
" clip-path="url(#pbda7d72352)" style="fill: none; stroke: #f7f7f7; stroke-width: 0.5"/>
    <path d="M 409.602038 466.771745 
L 417.422212 465.568402 
L 413.712287 476.420219 
L 415.253964 480.691767 
L 413.091571 487.781445 
L 405.213371 482.588688 
L 399.975079 481.101074 
L 385.596926 474.091547 
L 387.038521 467.012912 
L 399.093513 468.273252 
L 409.602038 466.771745 
" clip-path="url(#pbda7d72352)" style="fill: none; stroke: #f7f7f7; stroke-width: 0.5"/>
    <path d="M 347.264765 428.773462 
L 352.415753 424.499421 
L 358.596299 434.287894 
L 357.14938 452.522923 
L 352.465261 451.653011 
L 348.263448 456.255851 
L 344.362943 452.599156 
L 343.950375 435.965734 
L 341.598999 428.083802 
L 347.264765 428.773462 
" clip-path="url(#pbda7d72352)" style="fill: none; stroke: #f7f7f7; stroke-width: 0.5"/>
    <path d="M 359.749362 234.610601 
L 353.157844 236.709505 
L 345.37174 234.89131 
L 341.190157 227.239858 
L 340.877669 213.145639 
L 342.593955 209.423754 
L 345.549012 205.287218 
L 354.624992 204.431555 
L 358.241756 200.628093 
L 366.528797 196.739136 
L 366.179578 203.829527 
L 363.129231 208.320155 
L 364.36534 212.18097 
L 369.950722 214.267762 
L 367.433255 219.468712 
L 364.36534 217.971124 
L 356.948153 227.897813 
L 359.749362 234.610601 
" clip-path="url(#pbda7d72352)" style="fill: none; stroke: #f7f7f7; stroke-width: 0.5"/>
    <path d="M 384.977807 219.054774 
L 388.265048 225.967762 
L 382.08397 237.134843 
L 371.303948 229.347311 
L 369.865547 223.624485 
L 384.977807 219.054774 
" clip-path="url(#pbda7d72352)" style="fill: none; stroke: #f7f7f7; stroke-width: 0.5"/>
    <path d="M 193.690712 249.990451 
L 185.904342 247.148453 
L 179.533482 247.337967 
L 181.657014 239.949768 
L 179.533482 232.562994 
L 188.169478 231.994452 
L 199.21168 240.51831 
L 193.690712 249.990451 
" clip-path="url(#pbda7d72352)" style="fill: none; stroke: #f7f7f7; stroke-width: 0.5"/>
    <path d="M 225.667246 256.374039 
L 225.685284 256.375508 
L 227.200343 248.371388 
L 220.301482 239.879513 
L 220.143821 239.685446 
L 207.636068 237.259523 
L 205.180618 233.528376 
L 208.924347 227.367388 
L 205.536492 223.568913 
L 199.989971 230.087912 
L 199.38629 216.799129 
L 194.184197 209.767872 
L 197.925264 195.514419 
L 205.927767 184.330952 
L 214.153589 185.422439 
L 226.582289 184.2622 
L 215.571761 199.179308 
L 226.067243 197.290579 
L 237.354857 197.362537 
L 234.669168 208.595877 
L 225.407932 220.952052 
L 236.059658 221.831582 
L 236.876916 223.280527 
L 246.052339 239.547941 
L 253.103804 241.762263 
L 259.444054 257.470557 
L 262.379946 262.916593 
L 274.860816 265.542717 
L 273.608736 274.359752 
L 268.360862 278.4026 
L 272.474305 285.535026 
L 263.207745 292.755084 
L 249.42582 292.627554 
L 231.887656 296.418548 
L 227.084292 293.704436 
L 220.273181 300.163944 
L 210.743642 298.599384 
L 203.506654 303.863743 
L 198.030935 301.110802 
L 213.138936 286.630075 
L 222.360246 283.651997 
L 222.279185 283.640422 
L 206.191811 281.343274 
L 203.277212 275.856984 
L 214.041796 271.583656 
L 208.399985 264.15734 
L 210.357424 255.126924 
L 225.667246 256.374039 
" clip-path="url(#pbda7d72352)" style="fill: none; stroke: #f7f7f7; stroke-width: 0.5"/>
    <path d="M 108.076577 76.436176 
L 105.69752 85.358299 
L 117.337282 94.762044 
L 103.944236 105.2758 
L 74.228374 114.72443 
L 65.350427 117.238697 
L 51.788361 115.208546 
L 23.04483 110.844379 
L 33.186568 104.75143 
L 10.764655 98.009432 
L 29.004985 95.336999 
L 28.561806 91.288807 
L 6.941341 88.08203 
L 13.901775 79.102198 
L 29.514707 77.062428 
L 45.571083 86.414876 
L 61.223675 78.908053 
L 74.185254 82.806271 
L 90.985053 75.458683 
L 108.076577 76.436176 
" clip-path="url(#pbda7d72352)" style="fill: none; stroke: #f7f7f7; stroke-width: 0.5"/>
    <path d="M 399.766399 351.438186 
L 408.27543 352.506518 
L 413.473796 349.378467 
L 422.483233 349.035062 
L 424.44706 346.708171 
L 426.179848 346.860638 
L 428.181472 351.514775 
L 419.98067 355.17717 
L 418.979326 360.746462 
L 415.398762 362.157843 
L 415.437091 366.01082 
L 411.39445 365.743648 
L 407.890543 363.492991 
L 406.003906 365.819881 
L 398.824678 365.348946 
L 401.117496 364.098581 
L 398.650068 358.228632 
L 399.766399 351.438186 
" clip-path="url(#pbda7d72352)" style="fill: none; stroke: #f7f7f7; stroke-width: 0.5"/>
    <path d="M 552.079324 40.467689 
L 550.575444 50.120795 
L 566.352072 59.30724 
L 556.845424 69.702727 
L 568.826745 85.396465 
L 561.891539 97.216109 
L 571.165552 107.476586 
L 566.954157 116.460692 
L 582.202697 125.906472 
L 578.328277 132.937729 
L 568.759344 140.901951 
L 546.702646 158.501063 
L 546.702666 158.501075 
L 546.702621 158.501111 
L 528.007136 159.597941 
L 509.891376 164.652837 
L 493.131503 167.561094 
L 487.167622 160.039666 
L 477.190379 155.514127 
L 479.483729 141.93181 
L 474.480734 129.495128 
L 479.392698 121.466429 
L 488.733254 112.807203 
L 512.300777 97.854828 
L 519.177632 94.97222 
L 518.106018 89.141456 
L 503.780035 82.626019 
L 500.303278 77.261204 
L 500.031249 56.029929 
L 483.951183 46.643283 
L 470.219831 39.895941 
L 476.393988 36.253495 
L 487.842105 43.542662 
L 501.293976 42.860126 
L 512.354012 46.192296 
L 522.176874 40.090798 
L 527.228845 29.982431 
L 543.223735 25.310126 
L 556.443502 30.79321 
L 552.079324 40.467689 
" clip-path="url(#pbda7d72352)" style="fill: none; stroke: #f7f7f7; stroke-width: 0.5"/>
    <path d="M 489.921984 315.917123 
L 487.065411 319.506491 
L 485.054205 325.064383 
L 482.856146 326.474695 
L 471.823792 322.28508 
L 468.447648 323.126138 
L 466.031859 326.369964 
L 461.194424 328.09162 
L 460.080754 327.210309 
L 455.063919 329.350535 
L 450.970704 329.758774 
L 450.141308 332.52739 
L 441.4944 334.21663 
L 437.696638 332.713341 
L 432.455152 329.183464 
L 431.428255 324.406071 
L 432.255522 322.655559 
L 433.715217 319.622622 
L 438.279025 319.856308 
L 441.796773 318.429965 
L 442.07519 317.147539 
L 444.047535 316.49279 
L 444.722551 313.355833 
L 447.086703 312.756299 
L 448.68321 310.274448 
L 451.754851 310.257706 
L 452.336174 311.090214 
L 456.571525 309.21894 
L 461.766697 314.105696 
L 467.853017 311.150773 
L 472.716537 312.566429 
L 480.132127 310.617854 
L 489.921984 315.917123 
" clip-path="url(#pbda7d72352)" style="fill: none; stroke: #f7f7f7; stroke-width: 0.5"/>
    <path d="M 412.236622 288.054637 
L 417.119307 292.493255 
L 424.821299 293.69268 
L 424.178757 297.485811 
L 429.774786 300.337784 
L 431.312736 296.777627 
L 438.37751 298.319388 
L 439.354898 302.636177 
L 447.013771 303.469041 
L 451.754851 310.257706 
L 448.68321 310.274448 
L 447.086703 312.756299 
L 444.722551 313.355833 
L 444.047535 316.49279 
L 442.07519 317.147539 
L 441.796773 318.429965 
L 438.279025 319.856308 
L 433.715217 319.622622 
L 432.255522 322.655559 
L 427.506457 320.052234 
L 422.668489 320.767899 
L 414.672109 316.560473 
L 411.046295 317.589976 
L 405.251168 323.230157 
L 397.597619 318.792607 
L 391.781198 312.865661 
L 386.524274 309.552015 
L 385.434028 303.737994 
L 383.630437 299.640287 
L 391.116829 296.638341 
L 394.941741 293.203221 
L 402.339231 290.532925 
L 404.92271 287.908582 
L 407.639276 289.493091 
L 412.236622 288.054637 
" clip-path="url(#pbda7d72352)" style="fill: none; stroke: #f7f7f7; stroke-width: 0.5"/>
    <path d="M 448.735015 404.646135 
L 439.617345 399.426924 
L 435.72802 393.66705 
L 431.800898 390.614876 
L 427.065141 385.465223 
L 424.831946 381.192607 
L 419.787961 374.746279 
L 421.944498 369.023809 
L 425.640581 372.189976 
L 427.873776 369.329454 
L 432.686723 369.023809 
L 441.542311 371.312939 
L 448.665111 371.122 
L 453.324192 374.173807 
L 453.324145 374.173869 
L 457.058968 374.135679 
L 454.479256 380.200959 
L 459.446143 385.503409 
L 457.944591 391.988363 
L 455.518784 392.598572 
L 453.593736 393.857456 
L 450.243985 397.061812 
L 448.735015 404.646135 
" clip-path="url(#pbda7d72352)" style="fill: none; stroke: #f7f7f7; stroke-width: 0.5"/>
    <path d="M 488.092308 409.192242 
L 493.251813 413.617324 
L 493.983258 422.73466 
L 492.019711 423.192302 
L 490.325503 425.595539 
L 484.742783 425.328367 
L 480.815661 428.342068 
L 474.077215 429.562866 
L 469.803536 426.20576 
L 468.340647 420.293064 
L 469.649687 415.601166 
L 469.649678 415.6011 
L 470.958627 415.715517 
L 471.420651 412.892644 
L 477.504122 410.756499 
L 479.811007 410.226745 
L 483.318104 409.421373 
L 488.092308 409.192242 
" clip-path="url(#pbda7d72352)" style="fill: none; stroke: #f7f7f7; stroke-width: 0.5"/>
    <path d="M 451.514626 359.716319 
L 451.514763 359.716246 
L 459.407868 356.092324 
L 465.837552 356.702545 
L 471.420805 362.11937 
L 472.575997 366.506335 
L 478.851833 369.749092 
L 479.660468 375.432377 
L 485.666937 379.437821 
L 488.900943 376.348243 
L 491.442366 378.064912 
L 489.055324 380.391803 
L 490.941961 382.794927 
L 488.400537 385.922622 
L 489.324691 390.958281 
L 494.329815 396.90945 
L 490.402693 401.219827 
L 488.669905 405.606792 
L 489.786768 407.246873 
L 488.092308 409.192242 
L 483.318104 409.421373 
L 479.811007 410.226745 
L 479.467801 409.192373 
L 480.699865 407.552143 
L 481.854977 404.195303 
L 480.391849 404.271545 
L 478.389642 401.715725 
L 476.695554 401.067189 
L 475.347958 398.873758 
L 473.422755 398.015454 
L 471.959628 396.069981 
L 470.111532 396.832949 
L 468.686932 401.410483 
L 466.222701 402.402314 
L 467.069694 401.21981 
L 463.142438 398.358748 
L 459.757662 396.873345 
L 458.252504 394.963719 
L 455.518784 392.598572 
L 457.944591 391.988363 
L 459.446143 385.503409 
L 454.479256 380.200959 
L 457.058968 374.135679 
L 453.324145 374.173869 
L 453.324192 374.173807 
L 457.290193 368.986049 
L 454.017325 365.056838 
L 451.514626 359.716319 
" clip-path="url(#pbda7d72352)" style="fill: none; stroke: #f7f7f7; stroke-width: 0.5"/>
    <path d="M 464.29755 405.492239 
L 461.525544 406.712885 
L 460.870757 404.118822 
L 456.404368 410.908911 
L 457.097476 415.295833 
L 454.94128 414.22777 
L 452.053553 409.726478 
L 447.60202 406.990019 
L 448.735015 404.646135 
L 450.243985 397.061812 
L 453.593736 393.857456 
L 455.518784 392.598572 
L 458.252504 394.963719 
L 459.757662 396.873345 
L 463.142438 398.358748 
L 467.069694 401.21981 
L 466.222701 402.402314 
L 464.29755 405.492239 
" clip-path="url(#pbda7d72352)" style="fill: none; stroke: #f7f7f7; stroke-width: 0.5"/>
    <path d="M 469.649678 415.6011 
L 468.95642 410.603878 
L 466.492339 409.192242 
L 464.29755 405.492239 
L 466.222701 402.402314 
L 468.686932 401.410483 
L 470.111532 396.832949 
L 471.959628 396.069981 
L 473.422755 398.015454 
L 475.347958 398.873758 
L 476.695554 401.067189 
L 478.389642 401.715725 
L 480.391849 404.271545 
L 481.854977 404.195303 
L 480.699865 407.552143 
L 479.467801 409.192373 
L 479.811007 410.226745 
L 477.504122 410.756499 
L 471.420651 412.892644 
L 470.958627 415.715517 
L 469.649678 415.6011 
" clip-path="url(#pbda7d72352)" style="fill: none; stroke: #f7f7f7; stroke-width: 0.5"/>
   </g>
  </g>
 </g>
 <defs>
  <clipPath id="pbda7d72352">
   <rect x="0" y="-0" width="669.6" height="523.903003"/>
  </clipPath>
 </defs>
</svg>
